<?xml version="1.0" encoding="UTF-8" standalone="no"?>
<svg
   xmlns:dc="http://purl.org/dc/elements/1.1/"
   xmlns:cc="http://creativecommons.org/ns#"
   xmlns:rdf="http://www.w3.org/1999/02/22-rdf-syntax-ns#"
   xmlns:svg="http://www.w3.org/2000/svg"
   xmlns="http://www.w3.org/2000/svg"
   xmlns:xlink="http://www.w3.org/1999/xlink"
   xmlns:sodipodi="http://sodipodi.sourceforge.net/DTD/sodipodi-0.dtd"
   xmlns:inkscape="http://www.inkscape.org/namespaces/inkscape"
   viewBox="0 0 500 500"
   version="1.1"
   id="svg474"
   sodipodi:docname="post.svg"
   inkscape:version="1.0 (4035a4fb49, 2020-05-01)">
  <metadata
     id="metadata478">
    <rdf:RDF>
      <cc:Work
         rdf:about="">
        <dc:format>image/svg+xml</dc:format>
        <dc:type
           rdf:resource="http://purl.org/dc/dcmitype/StillImage" />
        <dc:title>post</dc:title>
      </cc:Work>
    </rdf:RDF>
  </metadata>
  <sodipodi:namedview
     inkscape:document-rotation="0"
     pagecolor="#ffffff"
     bordercolor="#666666"
     borderopacity="1"
     objecttolerance="10"
     gridtolerance="10"
     guidetolerance="10"
     inkscape:pageopacity="0"
     inkscape:pageshadow="2"
     inkscape:window-width="1600"
     inkscape:window-height="837"
     id="namedview476"
     showgrid="false"
     inkscape:zoom="0.94752309"
     inkscape:cx="390.27563"
     inkscape:cy="272.04787"
     inkscape:window-x="-8"
     inkscape:window-y="-8"
     inkscape:window-maximized="1"
     inkscape:current-layer="svg474" />
  <defs
     id="defs28">
    <style
       id="style2">.cls-1,.cls-36{fill:none;}.cls-2{fill:#fff;}.cls-3{fill:#dff0ff;}.cls-4{fill:#002434;}.cls-5{fill:#009dcb;}.cls-6{fill:#0071a0;}.cls-7{fill:#aeaeae;}.cls-8{fill:#8c8d8d;}.cls-11,.cls-9{fill:#c2e5fa;}.cls-9{opacity:0.56;}.cls-10{fill:#007296;}.cls-11{opacity:0.29;}.cls-12{fill:url(#Degradado_sin_nombre_4);}.cls-13{fill:#0a6c8b;}.cls-14{fill:url(#Degradado_sin_nombre_3);}.cls-15{fill:#a80d3a;}.cls-16{fill:#570918;}.cls-17{fill:#86d0f4;}.cls-18{fill:url(#Degradado_sin_nombre_2);}.cls-19{fill:#004d74;}.cls-20{clip-path:url(#clip-path);}.cls-21{fill:#ffb900;}.cls-22{fill:#ff9c00;}.cls-23{fill:#ffd500;}.cls-24{fill:#009ec9;}.cls-25{fill:#007fab;}.cls-26{fill:#d1a87e;}.cls-27{fill:#e8c0a8;}.cls-28{fill:#2d2a25;}.cls-29{fill:#05496a;}.cls-30{fill:#005d87;}.cls-31{fill:#e40231;}.cls-32{fill:#ad1c2a;}.cls-33{fill:#004b61;}.cls-34{fill:#a56052;}.cls-35{fill:url(#linear-gradient);}.cls-36{stroke:#4b2b19;stroke-miterlimit:10;stroke-width:0.55px;}.cls-37{fill:url(#linear-gradient-2);}</style>
    <linearGradient
       id="Degradado_sin_nombre_4"
       x1="314.64"
       y1="163.14"
       x2="285.14"
       y2="221.25"
       gradientUnits="userSpaceOnUse">
      <stop
         offset="0"
         stop-color="#a80d3a"
         id="stop4" />
      <stop
         offset="1"
         stop-color="#47050f"
         id="stop6" />
    </linearGradient>
    <linearGradient
       id="Degradado_sin_nombre_3"
       x1="295.11"
       y1="204.91"
       x2="329.65"
       y2="141.22"
       gradientUnits="userSpaceOnUse">
      <stop
         offset="0"
         stop-color="#e50050"
         id="stop9" />
      <stop
         offset="1"
         stop-color="#ec6667"
         id="stop11" />
    </linearGradient>
    <linearGradient
       id="Degradado_sin_nombre_2"
       x1="195.02"
       y1="227.58"
       x2="245.91"
       y2="222.1"
       gradientUnits="userSpaceOnUse">
      <stop
         offset="0"
         stop-color="#004d6e"
         id="stop14" />
      <stop
         offset="1"
         stop-color="#041824"
         id="stop16" />
    </linearGradient>
    <clipPath
       id="clip-path">
      <path
         class="cls-1"
         d="M181.51,168c0-6.41,22.52-5.22,44.56-1.88,17.34,2.62,24.23,24.9,26.3,39.52a63,63,0,0,1,.56,9.41v68.39l-30.31-7.58-62.08,3.35L157.19,215l9.58-1.64S181.51,169.32,181.51,168Z"
         id="path19" />
    </clipPath>
    <linearGradient
       id="linear-gradient"
       x1="-11881.74"
       y1="-1786.27"
       x2="-11883.69"
       y2="-1781.76"
       gradientTransform="matrix(-0.94, -0.33, -0.33, 0.94, -11711.91, -2034.12)"
       gradientUnits="userSpaceOnUse">
      <stop
         offset="0"
         stop-color="#c9926a"
         id="stop22" />
      <stop
         offset="1"
         stop-color="#c9926a"
         stop-opacity="0"
         id="stop24" />
    </linearGradient>
    <linearGradient
       id="linear-gradient-2"
       x1="-12160.56"
       y1="-705.57"
       x2="-12159.82"
       y2="-700.91"
       gradientTransform="matrix(-0.99,-0.15,-0.15,0.99,-12022.48,-942.35)"
       xlink:href="#linear-gradient" />
    <linearGradient
       inkscape:collect="always"
       xlink:href="#linear-gradient"
       id="linearGradient247"
       gradientUnits="userSpaceOnUse"
       gradientTransform="matrix(-0.94,-0.33,-0.33,0.94,-11711.91,-2034.12)"
       x1="-11881.74"
       y1="-1786.27"
       x2="-11883.69"
       y2="-1781.76" />
  </defs>
  <title
     id="title30">post</title>
  <g
     id="BACKGROUND"
     style="fill:none;fill-opacity:1;stroke:none">
    <rect
       class="cls-2"
       width="500"
       height="500"
       id="rect32"
       style="fill:none;fill-opacity:1;stroke:none" />
  </g>
  <g
     id="OBJECTS"
     transform="matrix(0.96675438,0,0,0.96675438,10.271411,29.560361)">
    <ellipse
       class="cls-3"
       cx="296.12"
       cy="409.95999"
       rx="126.34"
       ry="34.759998"
       id="ellipse35" />
    <ellipse
       class="cls-3"
       cx="100.19"
       cy="422.16"
       rx="76.940002"
       ry="15.2"
       id="ellipse37" />
    <path
       class="cls-4"
       d="m 345.1,394.58 c 0.22,6.93 -20.53,13.21 -45.73,14 -25.2,0.79 -45.31,-4.1 -45.54,-11 0,-0.28 0.13,-2.83 0.13,-2.83 0,0 20.39,-10.43 44.58,-11.23 24.73,-0.82 46.69,8.21 46.69,8.21 0,0 -0.14,2.72 -0.13,2.85 z"
       id="path39" />
    <ellipse
       class="cls-5"
       cx="299.59"
       cy="393.25"
       rx="45.66"
       ry="12.55"
       transform="rotate(-1.89,300.04916,393.66097)"
       id="ellipse41" />
    <path
       class="cls-3"
       d="m 317.84,97.09 a 315.53,315.53 0 0 0 36.38,-33.61 c 0,0 -3.46,18.39 -3.61,49.4 -0.15,31.01 17.26,51.29 44.19,55.4 l 49,7.48 -40.87,28 c -22.47,15.38 -28,44.31 -15.77,69.08 a 383.65,383.65 0 0 0 24.68,42.95 l -47.36,-14.51 c -26,-8 -52.78,4.72 -63.84,30.75 -11.06,26.03 -18.19,46.07 -18.19,46.07 0,0 -6.75,-20 -18.19,-46.07 -11.44,-26.07 -37.8,-37.93 -63.84,-30.75 -26.04,7.18 -47.42,14.5 -47.42,14.5 l 31.62,-55 a 37.13,37.13 0 0 0 -11.21,-49.14 l -52.36,-35.86 c 0,0 20.47,-2.11 49,-7.48 28.53,-5.37 45.35,-25.66 44.18,-55.4 -1.17,-29.74 -3.6,-49.4 -3.6,-49.4 A 367.09,367.09 0 0 0 247,97.09 c 22.2,18.07 48.42,17.85 70.84,0 z"
       id="path43" />
    <circle
       class="cls-3"
       cx="370.82999"
       cy="132.2"
       r="10.17"
       id="circle45" />
    <path
       class="cls-3"
       d="m 401.55,161.91 a 6,6 0 1 1 -6,-6 6,6 0 0 1 6,6 z"
       id="path47" />
    <path
       class="cls-3"
       d="m 397,139.73 a 1.71,1.71 0 1 1 -1.71,-1.71 1.72,1.72 0 0 1 1.71,1.71 z"
       id="path49" />
    <circle
       class="cls-3"
       cx="380.79001"
       cy="97.360001"
       r="2.8399999"
       id="circle51" />
    <circle
       class="cls-3"
       cx="437.95001"
       cy="131.77"
       r="3.7"
       id="circle53" />
    <circle
       class="cls-3"
       cx="294.34"
       cy="89.400002"
       r="8.8199997"
       transform="rotate(-80.76,294.33272,89.40167)"
       id="circle55" />
    <path
       class="cls-3"
       d="m 325.91,68.07 a 0.58,0.58 0 0 1 -0.57,0.57 0.57,0.57 0 1 1 0,-1.14 0.58,0.58 0 0 1 0.57,0.57 z"
       id="path57" />
    <path
       class="cls-3"
       d="m 261.64,76.32 a 5.12,5.12 0 1 1 -5.12,-5.12 5.12,5.12 0 0 1 5.12,5.12 z"
       id="path59" />
    <path
       class="cls-3"
       d="M 287,53 A 4.84,4.84 0 1 1 282.17,48.16 4.83,4.83 0 0 1 287,53 Z"
       id="path61" />
    <path
       class="cls-3"
       d="m 215.29,122.67 a 6.83,6.83 0 1 1 -6.82,-6.83 6.82,6.82 0 0 1 6.82,6.83 z"
       id="path63" />
    <circle
       class="cls-3"
       cx="191.39999"
       cy="98.779999"
       r="5.1199999"
       id="circle65" />
    <path
       class="cls-3"
       d="m 164.11,158.5 a 3.13,3.13 0 1 1 -3.13,-3.13 3.13,3.13 0 0 1 3.13,3.13 z"
       id="path67" />
    <circle
       class="cls-3"
       cx="173.49001"
       cy="136.03"
       r="9.9499998"
       id="circle69" />
    <path
       class="cls-3"
       d="m 135.39,125.51 a 0.86,0.86 0 0 1 -0.86,0.85 0.85,0.85 0 1 1 0,-1.7 0.86,0.86 0 0 1 0.86,0.85 z"
       id="path71" />
    <path
       class="cls-3"
       d="m 165.81,89.11 a 4.55,4.55 0 1 1 -4.55,-4.55 4.54,4.54 0 0 1 4.55,4.55 z"
       id="path73" />
    <circle
       class="cls-3"
       cx="176.33"
       cy="54.139999"
       r="2.8399999"
       id="circle75" />
    <path
       class="cls-3"
       d="m 426.57,92.24 a 2.56,2.56 0 1 1 -2.57,-2.56 2.56,2.56 0 0 1 2.57,2.56 z"
       id="path77" />
    <path
       class="cls-3"
       d="m 318.8,54.71 a 2,2 0 1 1 -2,-2 2,2 0 0 1 2,2 z"
       id="path79" />
    <circle
       class="cls-3"
       cx="407.79999"
       cy="220.2"
       r="11.94"
       transform="rotate(-77.24,407.77721,220.21078)"
       id="circle81" />
    <path
       class="cls-3"
       d="m 443.92,198.31 a 4.84,4.84 0 1 1 -4.84,-4.84 4.84,4.84 0 0 1 4.84,4.84 z"
       id="path83" />
    <circle
       class="cls-3"
       cx="432.26001"
       cy="246.36"
       r="5.6900001"
       id="circle85" />
    <path
       class="cls-3"
       d="m 403.54,257.74 a 5.41,5.41 0 1 1 -5.41,-5.4 5.41,5.41 0 0 1 5.41,5.4 z"
       id="path87" />
    <circle
       class="cls-3"
       cx="421.45001"
       cy="286.17001"
       r="2.8399999"
       id="circle89" />
    <path
       class="cls-3"
       d="m 452.73,231 a 0.57,0.57 0 0 1 -0.57,0.57 0.58,0.58 0 0 1 -0.57,-0.57 0.57,0.57 0 0 1 0.57,-0.57 0.56,0.56 0 0 1 0.57,0.57 z"
       id="path91" />
    <path
       class="cls-3"
       d="m 441.07,281.06 a 3.7,3.7 0 1 1 -3.69,-3.7 3.69,3.69 0 0 1 3.69,3.7 z"
       id="path93" />
    <path
       class="cls-3"
       d="m 355.38,321.15 a 2.74,2.74 0 1 1 -2.74,-2.74 2.74,2.74 0 0 1 2.74,2.74 z"
       id="path95" />
    <circle
       class="cls-3"
       cx="377.94"
       cy="310.91"
       r="13.65"
       id="circle97" />
    <path
       class="cls-3"
       d="m 313.4,313.47 a 4,4 0 1 1 -4,-4 4,4 0 0 1 4,4 z"
       id="path99" />
    <circle
       class="cls-3"
       cx="331.03"
       cy="341.06"
       r="0.56999999"
       id="circle101" />
    <circle
       class="cls-3"
       cx="303.73001"
       cy="356.41"
       r="2.8399999"
       id="circle103" />
    <circle
       class="cls-3"
       cx="325.62"
       cy="323.14001"
       r="10.52"
       id="circle105" />
    <path
       class="cls-3"
       d="m 326.19,352.71 a 4.55,4.55 0 1 1 -4.55,-4.54 4.55,4.55 0 0 1 4.55,4.54 z"
       id="path107" />
    <path
       class="cls-3"
       d="m 374,350.44 a 4,4 0 1 1 -4,-4 4,4 0 0 1 4,4 z"
       id="path109" />
    <circle
       class="cls-3"
       cx="353.20999"
       cy="384.56"
       r="1.42"
       id="circle111" />
    <circle
       class="cls-3"
       cx="404.95999"
       cy="347.60001"
       r="0.85000002"
       id="circle113" />
    <circle
       class="cls-3"
       cx="161.25999"
       cy="219.58"
       r="15.41"
       id="circle115" />
    <circle
       class="cls-3"
       cx="169.12"
       cy="258.57999"
       r="10.06"
       transform="rotate(-45,169.1171,258.5794)"
       id="circle117" />
    <circle
       class="cls-3"
       cx="137.03999"
       cy="255.12"
       r="4.7199998"
       id="circle119" />
    <path
       class="cls-3"
       d="m 126.35,204.8 a 2.83,2.83 0 1 1 -2.83,-2.83 2.83,2.83 0 0 1 2.83,2.83 z"
       id="path121" />
    <path
       class="cls-3"
       d="m 110.31,239.08 a 4.4,4.4 0 1 1 -4.4,-4.4 4.4,4.4 0 0 1 4.4,4.4 z"
       id="path123" />
    <path
       class="cls-3"
       d="m 94.59,215.18 a 1.89,1.89 0 1 1 -1.89,-1.89 1.89,1.89 0 0 1 1.89,1.89 z"
       id="path125" />
    <circle
       class="cls-3"
       cx="94.900002"
       cy="289.07999"
       r="1.26"
       id="circle127" />
    <path
       class="cls-3"
       d="m 140.82,294.11 a 0.63,0.63 0 1 1 -0.63,-0.63 0.63,0.63 0 0 1 0.63,0.63 z"
       id="path129" />
    <path
       class="cls-3"
       d="m 168.81,283.73 a 3.46,3.46 0 1 1 -3.46,-3.46 3.46,3.46 0 0 1 3.46,3.46 z"
       id="path131" />
    <circle
       class="cls-3"
       cx="217.55"
       cy="307"
       r="10.38"
       transform="rotate(-45,217.54728,307.00897)"
       id="circle133" />
    <path
       class="cls-3"
       d="m 185.79,333.42 a 6.29,6.29 0 1 1 -6.29,-6.29 6.29,6.29 0 0 1 6.29,6.29 z"
       id="path135" />
    <path
       class="cls-3"
       d="m 245.54,338.14 a 6.29,6.29 0 1 1 -6.29,-6.29 6.29,6.29 0 0 1 6.29,6.29 z"
       id="path137" />
    <circle
       class="cls-3"
       cx="253.39999"
       cy="318.95001"
       r="9.1199999"
       transform="rotate(-22.37,253.36638,318.94737)"
       id="circle139" />
    <path
       class="cls-3"
       d="m 266.29,352.92 a 1.89,1.89 0 1 1 -1.88,-1.89 1.88,1.88 0 0 1 1.88,1.89 z"
       id="path141" />
    <circle
       class="cls-3"
       cx="229.81"
       cy="378.39001"
       r="5.9699998"
       id="circle143" />
    <path
       class="cls-3"
       d="m 203.71,355.43 a 1.57,1.57 0 1 1 -1.57,-1.57 1.57,1.57 0 0 1 1.57,1.57 z"
       id="path145" />
    <path
       class="cls-3"
       d="m 181.07,385.31 a 3.78,3.78 0 1 1 -3.77,-3.78 3.77,3.77 0 0 1 3.77,3.78 z"
       id="path147" />
    <path
       class="cls-3"
       d="m 247.37,375.42 a 3.15,3.15 0 1 1 -3.15,-3.15 3.15,3.15 0 0 1 3.15,3.15 z"
       id="path149" />
    <path
       class="cls-5"
       d="m 343.35,383.57 c -3.21,-2.07 -6,-4 -8.41,-5.8 l -2.64,-0.09 1.47,-0.76 c -1.8,-1.31 -3.46,-2.55 -5.06,-3.7 l -2.67,0.29 1.26,-1.29 c -1.71,-1.2 -3.39,-2.29 -5.13,-3.28 l -3.37,0.82 1.58,-1.8 a 46.15,46.15 0 0 0 -13.73,-4.34 q 2.69,-1 5.32,-2.09 a 55.23,55.23 0 0 0 13.67,7.15 l 0.6,-1.68 0.81,2.2 c 1.92,0.7 3.92,1.35 6,1.95 l 0.3,-1.6 1.62,2.14 c 2.48,0.67 5,1.25 7.53,1.7 l -0.06,-2.11 1.5,2.36 a 65.77,65.77 0 0 0 9.75,0.91 33.33,33.33 0 0 0 -6.61,-4 l -1.23,0.64 0.51,-1 A 113.07,113.07 0 0 0 332.56,365 l -2.29,1.25 0.69,-1.75 a 84.72,84.72 0 0 0 -17.32,-3.62 c 3.19,-1.37 6.32,-2.86 9.41,-4.44 a 27.49,27.49 0 0 0 4.73,3.41 l 0.19,-1.42 1.43,2.3 a 54.11,54.11 0 0 0 8.28,3.36 l 0.23,-1.71 1.37,2.2 c 2.66,0.79 5.33,1.42 7.86,1.93 l -0.29,-1.54 1,1.68 a 114.75,114.75 0 0 0 14.49,1.85 c -3.37,-1.5 -6.46,-3 -9.37,-4.35 l -1.88,0.77 1.27,-1.06 c -2.14,-1 -4.2,-2 -6.21,-2.85 l -1.82,0.75 0.76,-1.21 a 74.41,74.41 0 0 0 -8.57,-3.13 l -2.12,1.11 0.6,-1.53 a 48.92,48.92 0 0 0 -10.15,-1.51 c 2.2,-1.17 4.36,-2.39 6.51,-3.65 4.4,3.59 10.06,5.84 15.73,7.23 l 0.41,-1.36 1,1.68 a 75.27,75.27 0 0 0 7.8,1.28 l 0.17,-1.42 1,1.54 a 89,89 0 0 0 14,0.32 c -3.51,-1.16 -6.55,-2.31 -9.3,-3.4 l -2.48,0.56 1.18,-1.07 c -2,-0.8 -3.86,-1.56 -5.64,-2.25 l -2.42,0.92 0.85,-1.52 c -1.9,-0.71 -3.73,-1.33 -5.6,-1.84 l -2.95,1.59 1,-2.07 a 44.22,44.22 0 0 0 -13.75,-0.75 q 3.12,-1.86 6.17,-3.84 c 3.16,1.77 8.1,3.35 13.77,4.44 l 0.26,-1.61 1.09,1.85 c 1.83,0.32 3.73,0.59 5.66,0.8 v -1.49 l 1.81,1.67 c 2.33,0.2 4.68,0.31 7,0.32 l -0.41,-1.9 1.74,1.89 a 58.35,58.35 0 0 0 8.86,-0.75 30.64,30.64 0 0 0 -6.58,-2.53 l -1,0.78 0.29,-1 a 101.84,101.84 0 0 0 -13.18,-2.54 l -1.83,1.5 0.32,-1.69 c -6.5,-0.76 -12.83,-1 -16.87,-0.37 q 2.43,-1.62 4.81,-3.3 c 0.91,-0.65 1.81,-1.33 2.71,-2 a 24.43,24.43 0 0 0 5.72,1.86 l -0.25,-1.29 1.92,1.59 a 50.57,50.57 0 0 0 8.22,0.5 l -0.3,-1.57 1.84,1.53 c 2.55,-0.1 5.07,-0.33 7.43,-0.64 l -0.7,-1.25 1.4,1.16 a 104.43,104.43 0 0 0 13.19,-2.65 c -3.38,-0.32 -6.51,-0.69 -9.46,-1 l -1.41,1.23 0.79,-1.3 c -2.16,-0.25 -4.24,-0.49 -6.26,-0.67 l -1.37,1.19 0.31,-1.28 a 69.76,69.76 0 0 0 -8.4,-0.21 l -1.53,1.59 0.06,-1.51 a 45.68,45.68 0 0 0 -10,1.86 q 4.47,-3.36 8.73,-7 a 19.62,19.62 0 0 0 5.25,0.83 l -0.38,-1 1.76,1 a 39.74,39.74 0 0 0 6.71,-0.71 l -0.45,-1.22 1.69,1 c 2.05,-0.42 4.05,-1 5.92,-1.51 l -0.74,-0.92 1.29,0.75 a 85.78,85.78 0 0 0 10.3,-3.93 c -2.78,0.2 -5.35,0.32 -7.79,0.44 l -1,1.18 0.47,-1.15 c -1.79,0.08 -3.49,0.18 -5.15,0.31 l -0.95,1.14 0.08,-1.07 a 56,56 0 0 0 -6.82,1 l -1,1.49 L 366,330 a 37.36,37.36 0 0 0 -8.6,3.25 q 3.81,-3.27 7.42,-6.76 a 0.36,0.36 0 0 0 0,0.09 l 0.08,-0.21 0.29,-0.27 a 26.18,26.18 0 0 0 11.33,-0.82 l -0.2,-0.9 1.1,0.65 a 47.4,47.4 0 0 0 4.89,-1.73 l -0.35,-0.87 1,0.58 a 58.32,58.32 0 0 0 8.12,-4.22 c -2.39,0.44 -4.5,0.74 -6.42,1 l -1.25,1.1 0.34,-1 -3.95,0.49 -1.1,1.3 v -1.15 c -1.32,0.19 -2.57,0.42 -3.8,0.72 l -1.12,1.75 -0.07,-1.51 a 28.18,28.18 0 0 0 -7.29,3.35 c 1.72,-1.7 3.39,-3.44 5,-5.21 a 25.94,25.94 0 0 0 7.49,-1.48 l -0.3,-0.81 1,0.58 c 0.93,-0.32 1.88,-0.68 2.83,-1.08 l -0.39,-0.69 1.27,0.31 c 1.14,-0.51 2.26,-1.06 3.34,-1.66 l -0.67,-0.77 1.29,0.43 a 30.08,30.08 0 0 0 3.92,-2.63 16,16 0 0 0 -3.7,0.52 l -0.27,0.61 -0.11,-0.52 a 52.65,52.65 0 0 0 -6.78,2.21 l -0.46,1.16 -0.29,-0.86 a 43.2,43.2 0 0 0 -7.24,3.67 c 2,-2.2 4,-4.43 5.89,-6.73 q -3.21,3.68 -6.64,7.16 a 37.17,37.17 0 0 0 1.75,-8.9 h -0.91 l 1,-0.79 a 54.16,54.16 0 0 0 0.16,-7.12 h -0.53 l 0.51,-0.43 a 16.87,16.87 0 0 0 -0.57,-3.7 31.42,31.42 0 0 0 -1.39,4.52 l 0.79,1.11 -0.94,-0.42 c -0.26,1.2 -0.47,2.44 -0.62,3.67 l 0.66,1.13 -0.77,-0.17 c -0.11,1 -0.18,2 -0.22,3 l 0.84,0.78 -0.87,-0.05 a 25.61,25.61 0 0 0 0.78,7.7 l -0.19,0.19 v 0 0 c -1.86,1.89 -3.76,3.72 -5.7,5.52 a 28.36,28.36 0 0 0 2,-8.34 l -1.49,0.25 1.56,-1.54 c 0,-1.27 0,-2.54 -0.1,-3.87 l -1.11,0.25 1,-1.34 c -0.1,-1.25 -0.23,-2.56 -0.35,-4 l -0.89,0.53 0.82,-1.45 c -0.16,-1.93 -0.31,-4.05 -0.38,-6.48 A 58.77,58.77 0 0 0 364,308 l 0.78,0.91 -0.92,-0.16 a 49.54,49.54 0 0 0 -0.68,5.14 l 0.87,0.93 h -0.93 a 26.58,26.58 0 0 0 1.47,11 q -3.93,3.6 -8.07,7 a 37.11,37.11 0 0 0 2.32,-8.79 h -1.24 l 1.38,-1.16 a 56.08,56.08 0 0 0 0.26,-6.89 l -1.06,0.19 1,-1.06 c 0,-1.66 -0.12,-3.37 -0.22,-5.15 l -1.1,0.58 1.07,-1.09 c -0.13,-2.43 -0.27,-5 -0.36,-7.79 a 86.4,86.4 0 0 0 -2.84,10.65 l 0.88,1.21 -1,-0.64 c -0.37,1.91 -0.69,4 -0.91,6 l 1.16,1.59 -1.27,-0.33 a 39.93,39.93 0 0 0 0,6.74 l 1.2,1.65 -1.05,-0.27 a 20.53,20.53 0 0 0 1.28,4.92 c -2.85,2.29 -5.78,4.51 -8.77,6.62 a 44.67,44.67 0 0 0 3.08,-9.67 l -1.51,-0.12 1.77,-1.32 a 69.17,69.17 0 0 0 0.83,-8.37 l -1.31,0.15 1.35,-1.21 c 0.07,-2 0.09,-4.12 0.11,-6.3 l -1.39,0.63 1.39,-1.25 c 0,-3 0,-6.12 0.14,-9.52 a 103.4,103.4 0 0 0 -4.26,12.77 l 1,1.53 -1.16,-0.85 c -0.59,2.31 -1.13,4.78 -1.54,7.3 l 1.29,2 -1.52,-0.5 a 48.88,48.88 0 0 0 -0.52,8.22 l 1.34,2.1 -1.24,-0.39 a 24.92,24.92 0 0 0 1,5.6 c -0.87,0.6 -1.73,1.22 -2.61,1.81 -1.64,1.1 -3.3,2.16 -5,3.21 1.51,-3.81 2.77,-9.93 3.54,-16.33 l -1.71,-0.08 1.89,-1.43 a 103.85,103.85 0 0 0 0.64,-13.41 l -1,0.06 1,-0.78 a 30.64,30.64 0 0 0 -0.91,-7 59.94,59.94 0 0 0 -2.81,8.43 l 1.42,2.14 -1.74,-0.85 c -0.55,2.26 -1,4.58 -1.34,6.89 l 1.2,2.15 -1.45,-0.36 q -0.37,2.89 -0.56,5.69 l 1.55,1.5 -1.63,-0.13 a 49.87,49.87 0 0 0 1,14.08 c -2.09,1.28 -4.21,2.51 -6.34,3.7 a 43.9,43.9 0 0 0 2.35,-13.6 l -2.24,0.53 2.21,-2.51 c -0.08,-1.94 -0.27,-3.87 -0.54,-5.87 l -1.67,0.48 1.44,-2.14 c -0.27,-1.89 -0.59,-3.87 -0.92,-6 l -1.31,0.91 1.09,-2.29 c -0.44,-2.92 -0.88,-6.14 -1.23,-9.83 a 89.44,89.44 0 0 0 -2.81,13.67 l 1.29,1.31 -1.43,-0.15 a 73.19,73.19 0 0 0 -0.5,7.88 l 1.41,1.34 -1.41,0.09 c 0.08,5.74 1,11.64 3.38,16.68 -2.26,1.24 -4.53,2.45 -6.85,3.58 -0.41,0.21 -0.83,0.4 -1.25,0.6 A 49,49 0 0 0 324,343 l -1.63,0.15 1.65,-1.74 a 74.45,74.45 0 0 0 -0.67,-9.1 l -1.37,0.4 1.22,-1.54 c -0.3,-2.18 -0.66,-4.42 -1,-6.75 l -1.36,0.92 1.25,-1.59 c -0.53,-3.18 -1.1,-6.55 -1.62,-10.21 A 112.62,112.62 0 0 0 318.19,328 l 1.33,1.46 -1.4,-0.69 c -0.2,2.57 -0.33,5.32 -0.3,8.09 l 1.75,1.92 -1.72,-0.25 a 55,55 0 0 0 1,8.89 l 1.82,2 -1.41,-0.2 a 27.3,27.3 0 0 0 2.18,5.85 q -4.86,2.3 -9.87,4.24 c 1.39,-4 2.29,-10.82 2.62,-17.89 l -1.8,0.05 1.86,-1.64 a 108.28,108.28 0 0 0 -0.37,-14.06 l -1.06,0.14 1,-0.89 a 31.76,31.76 0 0 0 -1.49,-7.23 61.93,61.93 0 0 0 -2.29,9 l 1.66,2.13 -1.89,-0.75 c -0.39,2.41 -0.68,4.86 -0.86,7.3 l 1.42,2.16 -1.55,-0.26 c -0.11,2 -0.16,4 -0.14,6 l 1.74,1.45 h -1.71 a 51.67,51.67 0 0 0 2.17,14.8 q -2.62,1 -5.28,1.89 a 39,39 0 0 0 0.53,-12.12 l -1.94,0.73 1.69,-2.49 c -0.28,-1.72 -0.67,-3.42 -1.13,-5.18 l -1.44,0.62 1.05,-2.07 c -0.46,-1.66 -1,-3.39 -1.5,-5.26 l -1.07,1 0.73,-2.17 c -0.72,-2.55 -1.48,-5.37 -2.2,-8.62 a 79.06,79.06 0 0 0 -1,12.5 l 1.29,1 h -1.29 a 67.66,67.66 0 0 0 0.43,7.09 l 1.41,1 -1.24,0.23 a 36.87,36.87 0 0 0 4.58,14.05 l -2.33,0.74 0.77,2.41 c 0.94,-0.32 1.87,-0.64 2.8,-1 3.47,4.7 8.54,8.41 13.85,11.26 l 0.76,-1.24 0.55,1.92 a 75.91,75.91 0 0 0 7.47,3.3 l 0.55,-1.37 0.58,1.8 a 92.77,92.77 0 0 0 13.85,3.93 z"
       id="path151" />
    <path
       class="cls-5"
       d="m 313.31,311.67 c -0.94,3.71 -1.9,6.92 -2.81,9.83 l 0.76,2.52 -1.19,-1.15 c -0.68,2.13 -1.32,4.1 -1.9,6 l 1.13,2.43 -1.63,-0.77 c -0.58,2 -1.09,3.94 -1.47,5.9 l 1.85,2.94 -2.2,-0.92 a 46,46 0 0 0 0.27,14.39 q -1.8,-2.22 -3.68,-4.37 a 55.44,55.44 0 0 0 2.41,-15.24 h -1.79 l 1.83,-1.47 c 0.05,-2 0,-4.15 -0.05,-6.28 l -1.62,0.23 1.52,-2.22 c -0.16,-2.57 -0.42,-5.15 -0.79,-7.68 l -2,0.73 1.76,-2.18 a 65.78,65.78 0 0 0 -2.25,-9.53 33.09,33.09 0 0 0 -1.67,7.54 l 1,1 -1.1,-0.17 a 114.71,114.71 0 0 0 -0.6,14.73 l 1.92,1.78 -1.87,-0.11 a 84,84 0 0 0 2.09,17.58 c -2.32,-2.59 -4.73,-5.08 -7.21,-7.5 a 27.72,27.72 0 0 0 1.72,-5.58 l -1.4,0.28 1.72,-2.09 a 53.52,53.52 0 0 0 0.54,-8.92 l -1.7,0.33 1.66,-2 c -0.11,-2.77 -0.36,-5.5 -0.69,-8.07 l -1.36,0.77 1.26,-1.53 a 114.86,114.86 0 0 0 -2.87,-14.32 c -0.35,3.68 -0.76,7.07 -1.13,10.28 l 1.32,1.53 -1.4,-0.86 c -0.28,2.34 -0.53,4.6 -0.73,6.79 l 1.3,1.49 -1.39,-0.34 a 73.58,73.58 0 0 0 -0.23,9.12 l 1.73,1.66 -1.64,-0.07 a 49.3,49.3 0 0 0 1.8,10.1 c -1.8,-1.71 -3.65,-3.37 -5.52,-5 2,-5.32 2.32,-11.4 1.82,-17.22 l -1.41,0.05 1.27,-1.47 a 74.73,74.73 0 0 0 -1.27,-7.8 L 286,307 l 1.15,-1.42 A 88.57,88.57 0 0 0 283,292.26 c 0,3.71 -0.11,6.95 -0.26,9.9 l 1.32,2.18 -1.39,-0.78 c -0.12,2.16 -0.25,4.16 -0.34,6.06 l 1.65,2 -1.71,-0.32 c -0.07,2 -0.07,4 0,5.9 l 2.45,2.28 -2.28,-0.31 a 43.61,43.61 0 0 0 3.67,13.27 c -1.84,-1.58 -3.71,-3.13 -5.61,-4.62 0.67,-3.57 0.59,-8.75 -0.19,-14.47 l -1.61,0.27 1.41,-1.63 c -0.28,-1.84 -0.63,-3.72 -1.05,-5.61 l -1.41,0.48 1,-2.25 c -0.55,-2.27 -1.2,-4.54 -1.94,-6.74 l -1.66,1 1.23,-2.26 a 58.18,58.18 0 0 0 -3.54,-8.15 31.39,31.39 0 0 0 -0.3,7 l 1.06,0.7 h -1 a 103,103 0 0 0 1.81,13.3 l 2,1.26 -1.7,0.23 c 1.35,6.4 3.17,12.47 5,16.11 -1.54,-1.2 -3.09,-2.36 -4.66,-3.51 -0.91,-0.66 -1.84,-1.29 -2.76,-1.93 a 24.74,24.74 0 0 0 -0.06,-6 l -1.15,0.65 L 272,314 a 49.63,49.63 0 0 0 -2.15,-7.95 l -1.39,0.79 0.86,-2.24 c -0.91,-2.38 -1.94,-4.69 -3,-6.84 l -1,1.07 0.65,-1.7 a 103.83,103.83 0 0 0 -6.72,-11.66 c 0.78,3.31 1.42,6.39 2,9.3 l 1.61,0.95 -1.49,-0.34 c 0.46,2.13 0.9,4.17 1.37,6.15 l 1.57,0.92 -1.32,0.11 a 68.79,68.79 0 0 0 2.49,8 l 2,0.94 -1.45,0.42 a 45.55,45.55 0 0 0 5,8.87 q -4.62,-3.18 -9.43,-6 a 19.69,19.69 0 0 0 -0.88,-5.24 l -0.84,0.68 0.41,-2 a 40.7,40.7 0 0 0 -2.82,-6.14 l -1,0.83 0.39,-1.92 c -1.06,-1.81 -2.2,-3.54 -3.33,-5.13 l -0.63,1 0.29,-1.47 a 85.82,85.82 0 0 0 -7,-8.51 c 1.08,2.57 2,5 2.9,7.25 l 1.43,0.54 -1.24,-0.07 c 0.65,1.66 1.28,3.25 1.93,4.78 l 1.39,0.53 -1,0.27 a 56.07,56.07 0 0 0 3.09,6.15 l 1.74,0.49 -1.12,0.54 a 37.31,37.31 0 0 0 5.83,7.11 q -4.32,-2.56 -8.78,-4.87 l 0.08,-0.07 h -0.23 l -0.34,-0.18 a 26.38,26.38 0 0 0 -4.39,-10.48 l -0.8,0.47 0.27,-1.25 c -1,-1.46 -2.12,-2.83 -3.2,-4.08 l -0.71,0.61 0.21,-1.18 a 58.4,58.4 0 0 0 -6.59,-6.35 c 1.18,2.13 2.13,4 3,5.77 l 1.44,0.84 h -1 c 0.62,1.28 1.18,2.47 1.73,3.59 l 1.58,0.63 -1.09,0.35 c 0.6,1.19 1.21,2.3 1.89,3.38 l 2.13,0.54 -1.42,0.54 a 28.42,28.42 0 0 0 5.51,5.84 c -2.16,-1.09 -4.34,-2.12 -6.55,-3.11 A 26,26 0 0 0 240,298.8 l -0.67,0.54 0.23,-1.11 c -0.6,-0.79 -1.25,-1.57 -1.93,-2.35 l -0.53,0.59 -0.11,-1.3 c -0.84,-0.92 -1.72,-1.8 -2.63,-2.64 l -0.52,0.89 v -1.36 a 31.2,31.2 0 0 0 -3.74,-2.88 16.66,16.66 0 0 0 1.67,3.35 l 0.67,0.05 -0.46,0.27 a 53.43,53.43 0 0 0 4.26,5.72 l 1.25,0.07 -0.73,0.54 a 43,43 0 0 0 5.79,5.7 c -2.72,-1.21 -5.47,-2.37 -8.26,-3.43 3,1.24 6,2.59 8.9,4 a 37.55,37.55 0 0 0 -9,1.19 l 0.27,0.87 -1.05,-0.68 a 52.69,52.69 0 0 0 -6.81,2.12 l 0.21,0.49 -0.57,-0.35 a 16.74,16.74 0 0 0 -3.32,1.72 31.4,31.4 0 0 0 4.72,-0.12 l 0.81,-1.1 -0.11,1 c 1.23,-0.14 2.47,-0.34 3.68,-0.58 l 0.86,-1 0.08,0.79 c 1,-0.23 2,-0.48 2.94,-0.76 l 0.47,-1.05 0.23,0.84 a 25.78,25.78 0 0 0 7,-3.19 l 0.25,0.12 v 0 c 2.38,1.16 4.72,2.37 7,3.63 a 28.68,28.68 0 0 0 -8.52,0.81 l 0.71,1.34 -2,-1 c -1.21,0.37 -2.4,0.82 -3.63,1.32 l 0.59,1 -1.61,-0.55 c -1.15,0.49 -2.35,1 -3.65,1.59 l 0.8,0.68 -1.64,-0.32 c -1.78,0.77 -3.75,1.59 -6,2.43 a 59.11,59.11 0 0 0 9.14,-0.5 l 0.61,-1 0.15,0.93 a 48.36,48.36 0 0 0 5.08,-1 l 0.62,-1.12 0.29,0.88 a 26.55,26.55 0 0 0 10,-4.91 q 4.67,2.58 9.16,5.42 A 37.43,37.43 0 0 0 252,316 l 0.37,1.19 -1.55,-0.94 a 54.39,54.39 0 0 0 -6.6,1.95 l 0.52,0.95 -1.34,-0.65 c -1.56,0.57 -3.15,1.19 -4.81,1.85 l 0.9,0.86 -1.38,-0.67 c -2.26,0.9 -4.65,1.86 -7.26,2.83 a 85.77,85.77 0 0 0 11,-0.7 l 0.86,-1.22 -0.29,1.14 c 1.93,-0.26 4,-0.61 6,-1.07 l 1.14,-1.6 0.09,1.3 a 40.4,40.4 0 0 0 6.4,-2.14 l 1.18,-1.66 0.08,1.08 a 20,20 0 0 0 4.24,-2.79 q 4.64,3 9.08,6.2 a 45.42,45.42 0 0 0 -10.14,0.17 l 0.36,1.47 -1.85,-1.27 a 69.73,69.73 0 0 0 -8.2,1.89 l 0.56,1.19 -1.58,-0.89 c -1.94,0.58 -3.93,1.22 -6,1.91 l 1,1.11 -1.63,-0.92 c -2.82,0.93 -5.81,1.92 -9.06,2.91 a 104.27,104.27 0 0 0 13.45,0 l 1.14,-1.42 -0.44,1.37 c 2.38,-0.18 4.9,-0.45 7.42,-0.86 l 1.5,-1.87 v 1.6 a 50.84,50.84 0 0 0 8,-2.13 l 1.56,-1.94 v 1.31 a 24.53,24.53 0 0 0 5,-2.77 c 0.85,0.63 1.71,1.25 2.55,1.9 1.56,1.2 3.11,2.43 4.63,3.68 -4.09,-0.21 -10.29,0.55 -16.6,1.85 l 0.47,1.65 -2,-1.33 a 103.46,103.46 0 0 0 -12.91,3.67 l 0.37,0.94 -1.05,-0.68 a 30.35,30.35 0 0 0 -6.33,3.09 59.87,59.87 0 0 0 8.88,0 l 1.57,-2 -0.24,1.92 c 2.32,-0.21 4.65,-0.52 6.95,-0.93 l 1.66,-1.82 0.13,1.49 c 1.9,-0.38 3.77,-0.81 5.57,-1.29 l 0.92,-1.94 0.39,1.58 a 50.19,50.19 0 0 0 13,-5.42 q 2.82,2.35 5.53,4.83 A 44,44 0 0 0 271.65,336 l 1.23,1.95 -3.09,-1.29 c -1.81,0.69 -3.58,1.49 -5.39,2.38 l 1,1.43 -2.49,-0.68 c -1.71,0.86 -3.48,1.8 -5.4,2.79 l 1.28,0.95 -2.52,-0.31 c -2.63,1.35 -5.54,2.8 -8.92,4.31 a 89.64,89.64 0 0 0 13.85,-1.7 l 0.83,-1.63 0.31,1.4 a 77.21,77.21 0 0 0 7.64,-2.05 l 0.81,-1.76 0.54,1.31 c 5.41,-1.91 10.71,-4.65 14.72,-8.53 1.9,1.74 3.77,3.52 5.58,5.35 l 1,1 A 48.34,48.34 0 0 0 281,343 l 0.66,1.5 -2.17,-1 a 74.51,74.51 0 0 0 -8.42,3.54 l 0.82,1.17 -1.85,-0.66 c -2,1 -4,2 -6.07,3.15 l 1.31,1 -1.9,-0.68 c -2.85,1.52 -5.86,3.14 -9.16,4.79 a 113.57,113.57 0 0 0 14.38,-2.53 l 1,-1.73 -0.21,1.55 c 2.5,-0.63 5.14,-1.39 7.76,-2.3 l 1.26,-2.27 0.31,1.7 a 54.16,54.16 0 0 0 8.12,-3.75 l 1.31,-2.37 0.25,1.41 a 27.27,27.27 0 0 0 4.86,-3.93 c 2.48,2.58 4.88,5.25 7.17,8 -4.28,0 -11,1.28 -17.79,3.23 l 0.62,1.68 -2.15,-1.24 a 109.93,109.93 0 0 0 -13.21,4.85 l 0.47,0.95 -1.16,-0.63 a 32,32 0 0 0 -6.37,3.72 62.58,62.58 0 0 0 9.28,-0.71 l 1.49,-2.25 -0.11,2 c 2.41,-0.4 4.82,-0.91 7.2,-1.51 l 1.59,-2 0.24,1.55 c 2,-0.54 3.88,-1.14 5.72,-1.78 l 0.82,-2.11 0.53,1.63 c 5.58,-2.05 10.34,-4.45 13.32,-6.78 q 1.79,2.16 3.48,4.4 a 39.2,39.2 0 0 0 -11.65,3.36 l 1.31,1.61 -2.9,-0.81 c -1.54,0.82 -3,1.73 -4.55,2.73 l 1.05,1.16 -2.3,-0.33 c -1.42,1 -2.9,2 -4.5,3.1 l 1.25,0.71 h -2.29 c -2.19,1.5 -4.62,3.11 -7.47,4.84 a 79.87,79.87 0 0 0 12.16,-3.06 l 0.56,-1.56 0.43,1.22 a 66.63,66.63 0 0 0 6.59,-2.68 l 0.53,-1.66 0.62,1.1 a 36.67,36.67 0 0 0 11.84,-8.83 c 0.49,0.66 1,1.32 1.45,2 l 2,-1.5 c -0.6,-0.79 -1.2,-1.57 -1.82,-2.34 3.35,-4.79 5.25,-10.77 6.25,-16.72 l -1.42,-0.33 1.65,-1.13 a 76.41,76.41 0 0 0 0.74,-8.14 l -1.47,-0.08 1.51,-1.12 a 91.4,91.4 0 0 0 -0.66,-14.46 z"
       id="path153" />
    <path
       class="cls-6"
       d="m 273.47,377.71 c -4.35,0.14 -8.74,-2.15 -11.81,-4.48 a 36.33,36.33 0 0 0 -9.41,-5.48 36.77,36.77 0 0 0 8.18,-7.2 c 2.56,-2.87 6.43,-6 10.72,-6.67 4.55,-0.74 8.48,0.26 12.53,2.24 3.51,1.71 7,5.27 10.11,7.58 v 0 c -2.65,2.87 -5.34,7 -8.46,9.39 -3.59,2.74 -7.26,4.48 -11.86,4.62 z"
       id="path155" />
    <polygon
       class="cls-5"
       points="271.14,357.81 286.01,363.93 288.33,363.66 "
       id="polygon157" />
    <polygon
       class="cls-5"
       points="272.68,373.65 286.08,364.93 288.44,364.7 "
       id="polygon159" />
    <polygon
       class="cls-5"
       points="266.82,361.95 276.34,364.91 278.21,365.34 278.79,364.93 "
       id="polygon161" />
    <polygon
       class="cls-5"
       points="267.65,370.42 276.41,365.69 278.17,364.91 278.81,365.2 "
       id="polygon163" />
    <polygon
       class="cls-5"
       points="261.51,364.25 266.8,365.89 267.84,366.13 268.16,365.92 "
       id="polygon165" />
    <polygon
       class="cls-5"
       points="262.46,368.99 267.34,366.36 268.34,366.08 268.67,366.08 "
       id="polygon167" />
    <polygon
       class="cls-5"
       points="258.91,367 299.85,362.26 300.02,363.98 "
       id="polygon169" />
    <path
       class="cls-6"
       d="m 309.12,302.42 c 2.59,-3.48 7.12,-5.49 10.85,-6.45 a 36.42,36.42 0 0 0 10.15,-4 36.62,36.62 0 0 0 0.55,10.88 c 0.65,3.8 0.67,8.75 -1.45,12.55 -2.25,4 -5.48,6.48 -9.55,8.42 -3.52,1.68 -8.46,2.16 -12.22,3.19 v 0 0 0 c -0.6,-3.86 -2.19,-8.56 -2.09,-12.46 0.09,-4.47 1.01,-8.43 3.76,-12.13 z"
       id="path171" />
    <polygon
       class="cls-5"
       points="326.15,312.98 312.11,320.82 310.87,322.81 "
       id="polygon173" />
    <polygon
       class="cls-5"
       points="312.79,304.33 311.29,320.25 310,322.24 "
       id="polygon175" />
    <polygon
       class="cls-5"
       points="325.59,307.03 317.36,312.64 315.85,313.84 315.82,314.54 "
       id="polygon177" />
    <polygon
       class="cls-5"
       points="318.45,302.4 316.7,312.21 316.22,314.08 315.59,314.39 "
       id="polygon179" />
    <polygon
       class="cls-5"
       points="327.1,301.44 322.52,304.56 321.69,305.23 321.65,305.61 "
       id="polygon181" />
    <polygon
       class="cls-5"
       points="322.8,299.24 321.82,304.69 321.42,305.65 321.21,305.91 "
       id="polygon183" />
    <polygon
       class="cls-5"
       points="326.57,297.69 304.81,332.7 303.36,331.76 "
       id="polygon185" />
    <path
       class="cls-7"
       d="m 287.84,390.38 c 0,0 1.49,2.62 10.16,2.62 8.67,0 11.17,-2.63 11.17,-2.63 V 269.5 h -21.33 z"
       id="path187" />
    <polygon
       class="cls-8"
       points="287.84,301.2 309.12,296.65 309.12,269.5 287.84,269.5 "
       id="polygon189" />
    <path
       class="cls-4"
       d="m 152.34,320.46 c -1.47,2 -6.56,12.5 -6.56,12.5 a 72.29,72.29 0 0 0 0,9.25 c 0.71,5.91 4.2,11.5 13.18,14.67 22.67,8 50.5,-16.63 58.12,-25.81 8.16,-9.83 37.39,-42.41 37.39,-42.41 v -4.46 l -62.13,-11 c 0,0 -35.84,41.74 -40,47.26 z"
       id="path191" />
    <path
       class="cls-5"
       d="m 218.31,161.15 c 0,0 119.62,-11.07 141.4,-7.77 21.78,3.3 28.45,37.28 28.45,48.22 v 64.21 L 254.47,284.2 Z"
       id="path193" />
    <path
       class="cls-9"
       d="m 383.93,179.41 -155.51,16.13 1.07,3.66 155.6,-16.13 c -0.35,-1.21 -0.74,-2.43 -1.16,-3.66 z"
       id="path195" />
    <path
       class="cls-10"
       d="m 385.82,185.73 -155.42,16.56 3.26,11.1 L 387.87,197 a 80.87,80.87 0 0 0 -2.05,-11.27 z"
       id="path197" />
    <path
       class="cls-11"
       d="m 240.49,160.79 c 0,0 93,-8.56 113,-6.21 -15.65,16.11 -94.87,9.57 -113,6.21 z"
       id="path199" />
    <path
       class="cls-10"
       d="M 254.47,284.2 388.16,265.81 V 201.6 c -13.89,2.83 -112.09,14.75 -153,16.79 z"
       id="path201" />
    <path
       class="cls-12"
       d="M 327.8,110.45 326,110 a 1.14,1.14 0 0 0 -1.32,0.62 c -4.21,9.25 -40.61,89.34 -43.37,94.83 -1.8,3.34 -2.83,5.56 -2.83,8.8 a 12.65,12.65 0 1 0 13.58,-12.6 c 6.16,-13.61 30,-63.62 30,-63.62 l 17.72,5.7 8.44,-19 z"
       id="path203"
       style="fill:url(#Degradado_sin_nombre_4)" />
    <path
       class="cls-5"
       d="m 150.19,317.54 c -3.76,5 -14.88,27.76 8.06,35.85 22.94,8.09 51.07,-16.81 58.78,-26.1 8.26,-9.94 37.44,-43.09 37.44,-43.09 l -62.13,-15.51 c 0,0 -37.94,43.31 -42.15,48.85 z"
       id="path205" />
    <path
       class="cls-13"
       d="m 152.34,316 c -3.72,4.94 -16.06,28.42 6.62,36.42 22.68,8 50.5,-16.63 58.12,-25.81 8.16,-9.83 37.39,-42.4 37.39,-42.4 L 192.34,268.7 c 0,0 -35.84,41.77 -40,47.3 z"
       id="path207" />
    <path
       class="cls-4"
       d="m 153.62,320.09 c 4.16,-5.52 40,-47.3 40,-47.3 l 58.09,14.49 2.76,-3.08 -62.13,-15.51 c 0,0 -35.79,41.81 -40,47.3 -5.57,7.28 -9.84,16.76 -5.13,26.85 -1.63,-9.29 4.08,-19.66 6.41,-22.75 z"
       id="path209" />
    <path
       class="cls-14"
       d="m 283.71,206.15 c 2.93,-5.82 44.09,-95.7 44.09,-95.7 l 22.12,14.27 a 1.41,1.41 0 0 1 0.53,1.78 l -8.84,19.5 a 1.42,1.42 0 0 1 -1.73,0.76 l -15.33,-4.92 a 1.4,1.4 0 0 0 -1.71,0.74 c -3.43,7.23 -22.46,47.4 -28.06,59.77 A 12.64,12.64 0 1 1 281.21,215 c 0,-3.29 1.23,-6 2.5,-8.85 z"
       id="path211"
       style="fill:url(#Degradado_sin_nombre_3)" />
    <path
       class="cls-15"
       d="m 288.64,215 a 5.21,5.21 0 1 0 5.21,-5.21 5.21,5.21 0 0 0 -5.21,5.21 z"
       id="path213" />
    <path
       class="cls-16"
       d="m 291.74,215 a 2.11,2.11 0 1 0 2.11,-2.11 2.11,2.11 0 0 0 -2.11,2.11 z"
       id="path215" />
    <path
       class="cls-17"
       d="m 266.07,213.63 c 0,-12.12 -7.4,-49.81 -31.55,-53.46 -0.76,-0.12 -1.5,-0.2 -2.22,-0.25 0.09,-0.32 0.25,-0.67 1.17,-0.8 a 8.93,8.93 0 0 1 2.74,0.18 c 24.15,3.66 32,42.12 32,54.24 v 68.76 l -2.16,0.3 z"
       id="path217" />
    <path
       class="cls-17"
       d="m 371.46,203.36 c 0,-16.72 -7.37,-46.81 -31.41,-50.24 -0.75,-0.11 -1.49,-0.19 -2.21,-0.24 0.17,-0.29 0.52,-1 2.64,-0.94 20.57,1.67 33.13,24.73 33.13,51.33 v 64.61 l -2.15,0.28 z"
       id="path219" />
    <path
       class="cls-13"
       d="m 192.35,193 c 0,-6.91 7.29,-35.16 31.06,-31.56 23.77,3.6 31.06,40.7 31.06,52.64 v 70.12 l -62.12,-15.54 z"
       id="path221" />
    <path
       class="cls-18"
       d="m 193.87,193.27 c 0,-6.57 6.93,-33.44 29.54,-30 22.61,3.44 29.59,38.73 29.59,50.05 v 70.15 l -59.09,-14.78 z"
       id="path223"
       style="fill:url(#Degradado_sin_nombre_2)" />
    <polygon
       class="cls-19"
       points="193.62,272.79 251.71,287.28 254.47,284.19 192.35,268.66 "
       id="polygon225" />
    <g
       class="cls-20"
       clip-path="url(#clip-path)"
       id="g237">
      <rect
         class="cls-21"
         x="187.22"
         y="208.89999"
         width="108.72"
         height="63.720001"
         rx="2.2"
         transform="rotate(-3.52,241.31982,240.48861)"
         id="rect227" />
      <path
         class="cls-22"
         d="m 291.79,207.38 -104.12,6.4 c -1.22,0.07 -2.24,-0.5 -2.16,0.71 l 53.78,28.43 a 5.38,5.38 0 0 0 5.28,-0.33 L 294,207.82 c 0,-1.21 -1,-0.51 -2.21,-0.44 z"
         id="path229" />
      <path
         class="cls-23"
         d="m 291.69,205.76 -104.12,6.4 a 2.2,2.2 0 0 0 -2.06,2.33 l 53.64,26 a 5.38,5.38 0 0 0 5.28,-0.34 L 294,207.82 a 2.2,2.2 0 0 0 -2.31,-2.06 z"
         id="path231" />
      <path
         class="cls-22"
         d="m 191.94,273.59 c 3.21,-2.84 6.55,-5.5 9.93,-8.09 3.38,-2.59 6.81,-5.11 10.27,-7.6 3.46,-2.49 7,-4.87 10.56,-7.2 3.56,-2.33 7.17,-4.61 10.91,-6.7 -3.21,2.83 -6.55,5.49 -9.93,8.09 -3.38,2.6 -6.81,5.11 -10.28,7.59 -3.47,2.48 -7,4.88 -10.55,7.2 -3.55,2.32 -7.18,4.61 -10.91,6.71 z"
         id="path233" />
      <path
         class="cls-22"
         d="m 294.21,267.3 c -3.54,-2.42 -7.17,-4.65 -10.85,-6.81 -3.68,-2.16 -7.39,-4.24 -11.12,-6.28 -3.73,-2.04 -7.53,-4 -11.36,-5.85 -3.83,-1.85 -7.69,-3.7 -11.65,-5.32 3.53,2.42 7.17,4.65 10.84,6.81 3.67,2.16 7.39,4.24 11.13,6.28 3.74,2.04 7.53,4 11.36,5.85 3.83,1.85 7.68,3.7 11.65,5.32 z"
         id="path235" />
    </g>
    <path
       class="cls-24"
       d="m 391.59,220.39 c 1.41,-0.57 2.79,-1.19 4.16,-1.86 l 0.06,0.13 c -1.39,0.63 -2.81,1.21 -4.22,1.73 z"
       id="path239" />
    <path
       class="cls-24"
       d="m 403.51,213.93 a 60.53,60.53 0 0 0 6.95,-5.72 l 0.46,0.49 a 55.13,55.13 0 0 1 -7.17,5.58 z"
       id="path241" />
    <path
       class="cls-24"
       d="m 416.47,201.52 a 67.86,67.86 0 0 0 5,-7.46 l 0.95,0.57 a 70.34,70.34 0 0 1 -5.25,7.45 z"
       id="path243" />
    <path
       class="cls-24"
       d="m 425.48,186 a 84.09,84.09 0 0 0 3.08,-8.43 l 1.45,0.47 a 84.39,84.39 0 0 1 -3.33,8.49 z"
       id="path245" />
    <path
       class="cls-24"
       d="m 430.78,168.9 c 0.61,-2.93 1.07,-5.89 1.44,-8.85 l 1.92,0.25 c -0.41,3 -1,6 -1.66,9 z"
       id="path247" />
    <path
       class="cls-24"
       d="m 433,151.1 q 0.21,-4.48 0.09,-9 h 2.19 c 0,3 0,6.09 -0.22,9.13 z"
       id="path249" />
    <path
       class="cls-24"
       d="m 432.5,133.17 q -0.44,-4.47 -1.17,-8.9 l 2.42,-0.38 c 0.45,3 0.81,6 1.06,9.07 z"
       id="path251" />
    <path
       class="cls-24"
       d="m 429.54,115.49 q -1,-4.36 -2.4,-8.63 l 2.59,-0.8 q 1.32,4.38 2.33,8.84 z"
       id="path253" />
    <path
       class="cls-24"
       d="m 424.09,98.45 c -1.13,-2.75 -2.37,-5.46 -3.73,-8.11 L 423,89 q 2,4.11 3.71,8.39 z"
       id="path255" />
    <path
       class="cls-24"
       d="m 416,82.59 c -1.58,-2.52 -3.29,-5 -5.08,-7.31 l 2.56,-1.94 c 1.84,2.45 3.55,5 5.15,7.62 z"
       id="path257" />
    <path
       class="cls-24"
       d="m 405.14,68.48 a 82.56,82.56 0 0 0 -6.39,-6.16 l 2.16,-2.49 a 85.51,85.51 0 0 1 6.61,6.44 z"
       id="path259" />
    <path
       class="cls-24"
       d="m 391.72,56.94 a 61.61,61.61 0 0 0 -7.62,-4.42 l 1.49,-3 a 66.8,66.8 0 0 1 8,4.69 z"
       id="path261" />
    <path
       class="cls-24"
       d="m 376,49.36 a 35.46,35.46 0 0 0 -8.5,-1.41 l 0.12,-3.46 a 38.76,38.76 0 0 1 9.32,1.57 z"
       id="path263" />
    <path
       class="cls-24"
       d="m 359.21,49.15 a 14.34,14.34 0 0 0 -6.49,4.66 l -2.78,-2.22 a 18.09,18.09 0 0 1 3.64,-3.45 18.57,18.57 0 0 1 4.42,-2.29 z"
       id="path265" />
    <path
       class="cls-24"
       d="m 349,61.26 c -0.19,0.69 -0.41,1.38 -0.57,2.07 -0.16,0.69 -0.3,1.38 -0.41,2.07 a 22.72,22.72 0 0 0 -0.28,4.18 l -3.64,0.1 a 26.92,26.92 0 0 1 0.34,-4.84 c 0.13,-0.8 0.29,-1.59 0.48,-2.36 0.19,-0.77 0.44,-1.53 0.65,-2.3 z"
       id="path267" />
    <path
       class="cls-24"
       d="m 349.83,77.3 a 11.25,11.25 0 0 0 6,4.69 l -1.16,3.54 a 14.91,14.91 0 0 1 -8,-6.31 z"
       id="path269" />
    <path
       class="cls-24"
       d="m 362.84,81.16 a 10.6,10.6 0 0 0 4,-6.37 l 3.68,0.89 a 16.35,16.35 0 0 1 -1.9,4.72 12.14,12.14 0 0 1 -3.62,3.87 z"
       id="path271" />
    <path
       class="cls-24"
       d="m 366.92,66.66 a 15.33,15.33 0 0 0 -1.46,-3.73 30.15,30.15 0 0 0 -2.28,-3.59 l 3,-2.2 a 34.17,34.17 0 0 1 2.59,4 19.43,19.43 0 0 1 1.84,4.68 z"
       id="path273" />
    <path
       class="cls-24"
       d="m 357.33,52.94 a 48,48 0 0 0 -7,-5.21 l 1.88,-3.08 a 51.32,51.32 0 0 1 7.54,5.57 z"
       id="path275" />
    <path
       class="cls-24"
       d="m 342.54,43.94 a 38.66,38.66 0 0 0 -8.39,-2 l 0.43,-3.5 a 41.8,41.8 0 0 1 9.18,2.2 z"
       id="path277" />
    <path
       class="cls-24"
       d="m 325.54,41.86 a 36.77,36.77 0 0 0 -8.38,2 L 316,40.67 a 40.4,40.4 0 0 1 9.16,-2.27 z"
       id="path279" />
    <path
       class="cls-24"
       d="m 309.26,47.68 c -2.56,1.47 -5.05,3.1 -7.5,4.8 l -1.94,-2.76 c 2.5,-1.76 5.07,-3.45 7.74,-5 z"
       id="path281" />
    <polygon
       class="cls-24"
       points="294.54,57.81 287.49,63.42 285.39,60.85 292.49,55.16 "
       id="polygon283" />
    <polygon
       class="cls-24"
       points="280.52,69.17 273.56,74.96 271.47,72.46 278.41,66.64 "
       id="polygon285" />
    <polygon
       class="cls-24"
       points="266.56,80.72 259.48,86.41 257.51,83.92 264.52,78.23 "
       id="polygon287" />
    <polygon
       class="cls-24"
       points="252.27,91.94 244.91,97.3 243.18,94.87 250.41,89.49 "
       id="polygon289" />
    <path
       class="cls-24"
       d="m 237.39,102.42 q -3.81,2.51 -7.72,4.85 l -1.45,-2.4 c 2.56,-1.56 5.08,-3.19 7.57,-4.86 z"
       id="path291" />
    <path
       class="cls-24"
       d="m 221.75,111.78 c -2.69,1.44 -5.37,2.79 -8.06,4.19 l -1.2,-2.32 c 2.65,-1.42 5.35,-2.82 8,-4.25 z"
       id="path293" />
    <polygon
       class="cls-24"
       points="205.6,120.06 197.42,124.02 196.38,121.82 204.47,117.81 "
       id="polygon295" />
    <path
       class="cls-24"
       d="m 189.14,127.76 c -2.79,1.2 -5.6,2.35 -8.43,3.43 l -0.82,-2.1 c 2.8,-1.09 5.56,-2.26 8.31,-3.48 z"
       id="path297" />
    <path
       class="cls-24"
       d="m 172.1,134.2 c -2.9,0.92 -5.83,1.75 -8.8,2.45 l -0.48,-2 c 2.9,-0.71 5.77,-1.55 8.62,-2.49 z"
       id="path299" />
    <path
       class="cls-24"
       d="m 154.31,138.32 a 70,70 0 0 1 -9.15,0.65 v -1.86 a 73.67,73.67 0 0 0 8.89,-0.74 z"
       id="path301" />
    <path
       class="cls-24"
       d="m 136,138.31 a 51.72,51.72 0 0 1 -8.93,-2.18 l 0.49,-1.48 a 50.69,50.69 0 0 0 8.68,2 z"
       id="path303" />
    <path
       class="cls-24"
       d="m 118.69,132.4 a 55.71,55.71 0 0 1 -7.58,-5.13 l 0.78,-1 a 53.93,53.93 0 0 0 7.48,4.88 z"
       id="path305" />
    <path
       class="cls-24"
       d="m 104.61,120.71 a 9.69,9.69 0 0 1 -1.23,-4.58 11.72,11.72 0 0 1 0.91,-4.62 l 0.94,0.38 a 10.78,10.78 0 0 0 -0.79,4.21 8.73,8.73 0 0 0 1.14,4.06 z"
       id="path307" />
    <path
       class="cls-24"
       d="m 109.77,104.14 a 43.94,43.94 0 0 1 7.41,-5.34 l 0.39,0.67 a 43.7,43.7 0 0 0 -7.19,5.32 z"
       id="path309" />
    <path
       class="cls-24"
       d="m 125.31,94.73 c 2.78,-1.2 5.62,-2.26 8.49,-3.21 L 134,92 c -2.84,1 -5.65,2.09 -8.39,3.31 z"
       id="path311" />
    <path
       class="cls-24"
       d="m 142.49,88.94 c 2.92,-0.77 5.86,-1.46 8.82,-2.1 l 0.05,0.23 c -2.94,0.68 -5.86,1.42 -8.77,2.24 z"
       id="path313" />
    <polygon
       class="cls-24"
       points="160.21,85.12 164.71,84.38 160.22,85.2 "
       id="polygon315" />
    <polygon
       class="cls-23"
       points="164.54,64.03 175.08,73.54 218.31,66.2 "
       id="polygon317" />
    <polygon
       class="cls-23"
       points="218.31,66.2 177.86,78.71 187.65,87.68 "
       id="polygon319" />
    <polygon
       class="cls-21"
       points="175.08,73.54 175.08,84.42 177.86,78.71 218.31,66.2 "
       id="polygon321" />
    <polygon
       class="cls-22"
       points="180.84,81.44 175.08,84.42 177.86,78.71 "
       id="polygon323" />
    <polygon
       class="cls-23"
       points="446.85,289.95 436.59,299.76 393.16,293.66 "
       id="polygon325" />
    <polygon
       class="cls-23"
       points="393.16,293.66 433.95,305 424.42,314.26 "
       id="polygon327" />
    <polygon
       class="cls-21"
       points="436.59,299.76 436.9,310.63 433.95,305 393.16,293.66 "
       id="polygon329" />
    <polygon
       class="cls-22"
       points="431.05,307.82 436.9,310.63 433.95,305 "
       id="polygon331" />
    <path
       class="cls-25"
       d="m 216.07,284.28 q -2.72,3.68 -5.21,7.47 l -0.21,-0.13 q 2.63,-3.73 5.42,-7.34 z"
       id="path333" />
    <polygon
       class="cls-25"
       points="205.99,299.46 201.41,307.33 200.8,306.98 205.57,299.2 "
       id="polygon335" />
    <polygon
       class="cls-25"
       points="197.1,315.35 193.07,323.51 192.11,323.04 196.32,314.94 "
       id="polygon337" />
    <path
       class="cls-25"
       d="m 189.34,331.8 q -1.78,4.18 -3.39,8.44 l -1.33,-0.52 c 1.13,-2.83 2.33,-5.64 3.58,-8.42 z"
       id="path339" />
    <path
       class="cls-25"
       d="m 183,348.81 c -0.91,2.89 -1.73,5.8 -2.43,8.73 l -1.74,-0.43 c 0.77,-3 1.66,-5.9 2.64,-8.8 z"
       id="path341" />
    <path
       class="cls-25"
       d="m 178.89,366.4 c -0.17,1.48 -0.35,3 -0.44,4.48 -0.09,1.48 -0.19,3 -0.23,4.51 l -2.06,-0.08 c 0.07,-1.53 0.16,-3.06 0.29,-4.59 0.13,-1.53 0.32,-3.06 0.51,-4.59 z"
       id="path343" />
    <path
       class="cls-25"
       d="m 178.37,384.4 a 73.63,73.63 0 0 0 1.13,8.9 l -2.23,0.42 a 75.18,75.18 0 0 1 -1.06,-9.19 z"
       id="path345" />
    <path
       class="cls-25"
       d="m 181.83,401.93 a 48.74,48.74 0 0 0 3.7,8.08 l -2.16,1.22 a 51.45,51.45 0 0 1 -3.79,-8.52 z"
       id="path347" />
    <path
       class="cls-25"
       d="m 190.67,417.22 a 44.54,44.54 0 0 0 6.46,6 l -1.66,2.13 a 47.08,47.08 0 0 1 -6.76,-6.48 z"
       id="path349" />
    <path
       class="cls-25"
       d="m 204.62,428 a 59.69,59.69 0 0 0 8.19,3.47 l -1,2.75 a 63.49,63.49 0 0 1 -8.54,-3.74 z"
       id="path351" />
    <path
       class="cls-25"
       d="m 221.43,433.81 a 87.55,87.55 0 0 0 8.85,1.38 l -0.35,3.11 a 88.49,88.49 0 0 1 -9.14,-1.54 z"
       id="path353" />
    <path
       class="cls-25"
       d="m 239.24,435.77 q 4.5,0.12 9,-0.09 l 0.14,3.25 q -4.6,0.19 -9.23,0.06 z"
       id="path355" />
    <path
       class="cls-25"
       d="m 257.23,435 c 3,-0.33 6,-0.75 8.92,-1.26 l 0.56,3.27 q -4.54,0.76 -9.13,1.26 z"
       id="path357" />
    <path
       class="cls-25"
       d="m 275,431.91 c 2.92,-0.69 5.82,-1.48 8.66,-2.4 l 1,3.24 c -2.95,0.93 -5.92,1.73 -8.92,2.43 z"
       id="path359" />
    <polygon
       class="cls-25"
       points="292.21,426.53 300.85,423.57 301.95,426.85 293.33,429.77 "
       id="polygon361" />
    <polygon
       class="cls-25"
       points="309.52,420.69 318.24,417.93 319.27,421.3 310.6,424.02 "
       id="polygon363" />
    <polygon
       class="cls-25"
       points="327,415.29 335.8,412.8 336.74,416.27 327.99,418.71 "
       id="polygon365" />
    <polygon
       class="cls-25"
       points="344.67,410.51 353.62,408.46 354.37,412.04 345.53,414.03 "
       id="polygon367" />
    <path
       class="cls-25"
       d="m 362.65,406.73 c 3,-0.51 6.07,-1 9.13,-1.28 l 0.4,3.7 q -4.47,0.48 -8.93,1.22 z"
       id="path369" />
    <path
       class="cls-25"
       d="m 381,404.8 a 76.87,76.87 0 0 1 9.34,0.32 l -0.38,3.77 a 70.81,70.81 0 0 0 -8.87,-0.33 z"
       id="path371" />
    <path
       class="cls-25"
       d="m 399.63,406.83 2.26,0.66 c 0.69,0.22 1.38,0.42 2.08,0.59 a 30.16,30.16 0 0 0 4.23,0.73 l -0.37,3.72 a 36.23,36.23 0 0 1 -4.75,-0.8 c -0.78,-0.19 -1.56,-0.41 -2.32,-0.64 l -2.12,-0.62 z"
       id="path373" />
    <path
       class="cls-25"
       d="m 416.76,408.47 a 37.12,37.12 0 0 0 8.29,-2.55 l 1.46,3.34 a 41.2,41.2 0 0 1 -9.09,2.84 z"
       id="path375" />
    <path
       class="cls-25"
       d="m 432.78,401.71 a 76,76 0 0 0 7.15,-5.31 l 2.28,2.74 a 83.79,83.79 0 0 1 -7.46,5.59 z"
       id="path377" />
    <path
       class="cls-25"
       d="m 446.61,390.4 c 2.17,-2.09 4.28,-4.24 6.39,-6.42 l 2.5,2.41 c -2.11,2.19 -4.25,4.39 -6.45,6.53 z"
       id="path379" />
    <path
       class="cls-25"
       d="m 459.5,377.46 a 28.18,28.18 0 0 1 3.78,-3.07 7.47,7.47 0 0 1 2.74,-1.14 3.73,3.73 0 0 1 2,0.24 3.83,3.83 0 0 1 1.56,1.29 l -2.74,2 a 0.58,0.58 0 0 0 -0.16,-0.16 c 0,0 0,0 -0.19,0 a 4.18,4.18 0 0 0 -1.42,0.66 24,24 0 0 0 -3.27,2.7 z"
       id="path381" />
    <path
       class="cls-25"
       d="m 471.2,384.72 c 0,0.78 -0.05,1.53 -0.09,2.34 a 20.69,20.69 0 0 1 -0.29,2.45 16.56,16.56 0 0 1 -1.59,4.79 l -2.92,-1.52 a 13.31,13.31 0 0 0 1.25,-3.84 20.35,20.35 0 0 0 0.23,-2.08 l 0.07,-2.21 z"
       id="path383" />
    <path
       class="cls-25"
       d="m 461.24,400.61 a 17.55,17.55 0 0 1 -9.89,-0.65 l 1,-3 a 14.45,14.45 0 0 0 8.05,0.54 z"
       id="path385" />
    <path
       class="cls-25"
       d="m 443,395.06 a 29.08,29.08 0 0 1 -6.08,-7.41 l 2.63,-1.54 a 26,26 0 0 0 5.51,6.56 z"
       id="path387" />
    <path
       class="cls-25"
       d="m 433.42,378.84 a 61.17,61.17 0 0 1 -1.66,-9.18 l 2.83,-0.31 a 59.39,59.39 0 0 0 1.67,8.72 z"
       id="path389" />
    <path
       class="cls-25"
       d="m 431.41,360.37 a 59.13,59.13 0 0 1 1,-9.27 l 2.6,0.48 a 56.91,56.91 0 0 0 -0.83,8.86 z"
       id="path391" />
    <path
       class="cls-25"
       d="m 435.08,342.1 a 23.16,23.16 0 0 1 5.46,-7.86 l 1.64,1.81 a 20.54,20.54 0 0 0 -4.77,7.07 z"
       id="path393" />
    <path
       class="cls-25"
       d="m 449.41,330.3 a 22.11,22.11 0 0 1 9.45,1.35 l -0.73,2.12 a 19.82,19.82 0 0 0 -8.47,-1.14 z"
       id="path395" />
    <path
       class="cls-25"
       d="m 466.63,337.39 a 8.22,8.22 0 0 1 1.16,5 8.36,8.36 0 0 1 -2,4.62 l -1.41,-1.15 a 6.75,6.75 0 0 0 1.5,-3.63 6.24,6.24 0 0 0 -1,-3.75 z"
       id="path397" />
    <path
       class="cls-25"
       d="m 457.63,351.83 a 38.83,38.83 0 0 1 -9.11,1.69 l -0.09,-1.17 a 36.94,36.94 0 0 0 8.72,-1.93 z"
       id="path399" />
    <path
       class="cls-25"
       d="m 439.32,353.1 a 40,40 0 0 1 -8.87,-2.35 l 0.19,-0.51 a 41,41 0 0 0 8.8,2 z"
       id="path401" />
    <path
       class="cls-25"
       d="m 422.59,346.1 a 20.78,20.78 0 0 1 -2,-2 19.72,19.72 0 0 0 2.14,1.94 z"
       id="path403" />
    <path
       class="cls-26"
       d="m 140.33,259.59 a 8.73,8.73 0 0 1 2.24,7.1 c -0.41,4.72 -2.14,6.79 -4.95,6.23 -2.81,-0.56 -3,-7.88 -3,-7.88 z"
       id="path405" />
    <path
       class="cls-27"
       d="m 70.72,408.15 c 0,-0.11 -0.42,-0.27 1,-2.06 1.42,-1.79 3,-3.53 3,-3.53 l -5.06,-4.48 c 0,0 -4.25,5.44 -5.66,6.18 -1.41,0.74 -0.77,3.5 1.77,4.81 2.54,1.31 4.95,-0.92 4.95,-0.92 z"
       id="path407" />
    <path
       class="cls-28"
       d="m 72.19,406.43 a 7.93,7.93 0 0 0 -2.59,-0.18 c -0.56,0.23 -0.77,1.43 -1.29,1.56 a 3.7,3.7 0 0 1 -2.9,-1.77 c -0.8,-1.27 -0.06,-2.47 -0.1,-2.92 -0.04,-0.45 -5,2.81 -5.27,4.12 -0.27,1.31 3.14,3.46 4.52,5.39 1.38,1.93 4,6.92 7,9.58 3,2.66 4.55,3.11 5.37,2.33 1.39,-1.31 1.08,-2.91 -0.36,-5.5 C 75.13,416.45 72,410.41 72,409.81 a 25,25 0 0 0 0.19,-3.38 z"
       id="path409" />
    <path
       class="cls-29"
       d="m 95.48,302.82 c 0,0 4.19,52.84 2,61.51 C 95.29,373 74.1,405.86 74.1,405.86 A 9.5,9.5 0 0 1 70,403.08 c -2.14,-2.28 -3.5,-3.24 -3,-3.4 0.5,-0.16 10.8,-20.81 10.8,-20.81 0,0 8.68,-78.41 8.92,-78.57 a 62.42,62.42 0 0 1 5.7,-2.73 c 0.41,0 3.06,5.25 3.06,5.25 z"
       id="path411" />
    <path
       class="cls-27"
       d="m 88.07,418.76 a 10.7,10.7 0 0 1 -0.86,-2.39 c -0.14,-0.93 -0.35,-5.05 -0.35,-5.05 l -5.69,0.23 a 67.22,67.22 0 0 1 0.27,7.62 c -0.21,1.94 1,3.17 3,2.56 a 8,8 0 0 0 3.63,-2.97 z"
       id="path413" />
    <path
       class="cls-30"
       d="m 67.47,300.06 c 0,0 -1,12.16 0,20.25 1,7.53 8.25,48.88 8.24,49 a 67.17,67.17 0 0 0 -0.57,12.64 c 0.14,2.56 0.45,5.88 0.81,8.86 1.31,10.79 3.06,20.76 4,25 a 8.07,8.07 0 0 0 7.59,-0.6 c 0,0 0.23,-19.1 0.45,-26.15 0,-1.29 -0.1,-8.28 0.08,-10.73 0.39,-5.26 0.75,-9.87 0.77,-12.32 v -0.05 l 2.9,-38 3.72,-28.63 z"
       id="path415" />
    <path
       class="cls-31"
       d="m 93,234 a 36.52,36.52 0 0 1 11,13.42 c 2.38,5.32 5.22,10.9 7,14.21 a 5.39,5.39 0 0 0 5,2.91 l 21.57,-0.59 -0.41,8 c 0,0 -16.6,8 -30.63,2.84 C 100.54,272.6 93.51,266 93.51,266 Z"
       id="path417" />
    <path
       class="cls-32"
       d="m 79.87,228.65 c -6.14,1.54 -13,7.26 -16.53,20.44 -3.53,13.18 3.38,61 3.86,61 0.48,0 28,1.93 29.76,0 0.4,-21.78 0.59,-45 0,-63.72 -0.41,-12.69 -7.42,-17.19 -7.42,-17.19 0,0 -5.92,-1.48 -9.67,-0.53 z"
       id="path419" />
    <rect
       class="cls-21"
       x="33.599998"
       y="257.45001"
       width="108.72"
       height="63.720001"
       rx="2.2"
       transform="rotate(-8.26,87.910204,289.22738)"
       id="rect421" />
    <path
       class="cls-22"
       d="M 135.24,251.89 32,266.88 c -1.2,0.17 -2.27,-0.32 -2.09,0.88 l 56,23.89 a 5.38,5.38 0 0 0 5.24,-0.77 l 46.4,-38.74 c -0.23,-1.2 -1.11,-0.42 -2.31,-0.25 z"
       id="path423" />
    <path
       class="cls-23"
       d="m 135,250.29 -103.24,15 a 2.19,2.19 0 0 0 -1.86,2.49 l 55.61,21.52 a 5.36,5.36 0 0 0 5.23,-0.77 l 46.75,-36.37 A 2.19,2.19 0 0 0 135,250.29 Z"
       id="path425" />
    <path
       class="cls-22"
       d="m 41.2,326.12 c 3,-3.09 6.07,-6 9.23,-8.88 3.16,-2.88 6.37,-5.65 9.61,-8.41 3.24,-2.76 6.56,-5.44 9.92,-8.05 3.36,-2.61 6.77,-5.19 10.32,-7.59 -3,3.1 -6.07,6 -9.22,8.89 -3.15,2.89 -6.37,5.65 -9.62,8.41 -3.25,2.76 -6.55,5.44 -9.92,8.05 -3.37,2.61 -6.77,5.18 -10.32,7.58 z"
       id="path427" />
    <path
       class="cls-22"
       d="m 142.6,311.41 c -3.72,-2.12 -7.53,-4 -11.37,-5.89 -3.84,-1.89 -7.71,-3.62 -11.61,-5.34 -3.9,-1.72 -7.83,-3.35 -11.8,-4.9 -3.97,-1.55 -8,-3 -12,-4.33 3.72,2.12 7.53,4 11.37,5.89 3.84,1.89 7.72,3.61 11.61,5.33 3.89,1.72 7.83,3.35 11.8,4.9 3.97,1.55 7.92,3.04 12,4.34 z"
       id="path429" />
    <path
       class="cls-26"
       d="m 81.5,225 -1.5,4.4 c 0,0 5.44,3.2 9.19,2.14 a 42.08,42.08 0 0 0 1.91,-4.32 z"
       id="path431" />
    <path
       class="cls-27"
       d="m 98.27,305.63 a 48.25,48.25 0 0 0 5.18,2 l 5.4,2.76 a 0.87,0.87 0 0 1 0.34,1.23 l -0.29,0.45 a 1.75,1.75 0 0 1 -1.78,0.08 l -3.12,-1.61 3.64,4.45 a 0.79,0.79 0 0 1 0.19,0.47 l 0.23,3.58 a 0.82,0.82 0 0 1 -0.55,0.84 l -0.29,0.09 a 0.82,0.82 0 0 1 -1,-0.49 l -1.33,-3.55 0.9,3.73 a 0.82,0.82 0 0 1 -0.67,1 l -0.49,0.09 a 0.82,0.82 0 0 1 -0.8,-0.33 l -0.48,-0.64 -0.08,0.53 a 0.83,0.83 0 0 1 -0.71,0.69 h -0.19 a 0.84,0.84 0 0 1 -0.8,-0.37 l -7.19,-11.19 z"
       id="path433" />
    <path
       class="cls-31"
       d="m 70.57,236.5 a 21.34,21.34 0 0 0 -4.6,9.84 c -1.29,6.34 -14,35.83 -4.15,43.24 13.18,9.87 31.84,21 31.84,21 L 99.57,305 74.63,280.27 a 4.37,4.37 0 0 1 -0.94,-4.81 c 1.79,-4.19 5.26,-12.36 7.53,-18.27 3.17,-8.26 6.17,-15.53 -1.31,-21 -3.83,-2.82 -9.34,0.31 -9.34,0.31 z"
       id="path435" />
    <path
       class="cls-33"
       d="m 107.67,187.51 c 1.77,3.67 -1.69,12.59 -1.69,12.59 0,0 -13.22,-2.18 -17.48,-2.1 -4.26,0.08 -7.45,10.77 -11,19.76 -4.27,3.51 -12.77,-7.1 -8.75,-19.4 -1.18,2 -2.37,2 -2.37,2 0,0 -1.54,-4.5 3.79,-8 -3,1.07 -3.79,0.95 -3.79,0.95 a 6.22,6.22 0 0 1 5,-2.48 c 0.83,-5.21 1.54,-6.75 3.43,-8.17 a 16,16 0 0 1 -0.59,4 c 0,0 2.13,-4.5 10.17,-6.16 8.04,-1.66 9.35,-0.35 9.35,-0.35 a 7.87,7.87 0 0 1 -4.26,1.18 c 7.31,0.39 12.87,1.81 18.19,6.18 z"
       id="path437" />
    <path
       class="cls-27"
       d="m 106.64,206.64 c -2.42,11.6 -2.1,15.69 -4.66,18.67 -2.41,2.8 -8.53,6.12 -20,0.51 -5.53,-2.7 -5.8,-10.47 -5.8,-10.47 a 4.59,4.59 0 0 1 -2.76,-0.08 3.38,3.38 0 0 1 -2,-4.17 c 0.86,-3 2.47,-3.65 3.71,-3.73 2.22,-0.14 3.22,2.15 3.22,2.15 a 64.39,64.39 0 0 1 2.1,-7.55 c 1.17,-3.14 2.4,-7.36 14.74,-4.8 3.8,0.78 9,1.54 10.81,2.93 1.81,1.39 1.3,3.43 0.64,6.54 z"
       id="path439" />
    <path
       class="cls-33"
       d="m 112.47,185.78 a 9.91,9.91 0 0 0 -8.08,-2.26 c 1,0.53 1,2.13 0.34,3 -3,4.15 -7.59,1.53 -11.41,0.64 a 13.67,13.67 0 0 0 -11.4,2.55 15.1,15.1 0 0 0 -4.64,6.65 c 0.48,-0.16 1,-0.31 1.45,-0.44 3.51,-0.88 6.86,0.52 12.28,4 5.83,3.73 13.48,5.25 19.71,1.74 6.08,-3.36 7.62,-10.83 1.75,-15.88 z"
       id="path441" />
    <path
       class="cls-34"
       d="m 97.41,211.77 a 4.53,4.53 0 0 1 1.8,-0.21 2.37,2.37 0 0 1 1.68,0.8 1,1 0 0 1 0.12,1 1.45,1.45 0 0 1 -0.26,0.43 2.67,2.67 0 0 1 -0.36,0.31 4.44,4.44 0 0 1 -1.7,0.63 7,7 0 0 0 1.55,-0.83 c 0.45,-0.34 0.73,-0.92 0.38,-1.34 a 2.22,2.22 0 0 0 -1.45,-0.74 7.37,7.37 0 0 0 -1.76,-0.05 z"
       id="path443" />
    <path
       class="cls-34"
       d="m 86.87,217.73 a 2.23,2.23 0 0 0 0.42,1.87 3.1,3.1 0 0 0 1.53,1.16 6.31,6.31 0 0 0 1.94,0.38 17.58,17.58 0 0 0 2,0 c -0.33,0.1 -0.67,0.17 -1,0.26 -0.33,0.09 -0.69,0.09 -1,0.11 a 5.83,5.83 0 0 1 -2.1,-0.32 3.24,3.24 0 0 1 -1.66,-1.41 2.07,2.07 0 0 1 -0.13,-2.05 z"
       id="path445" />
    <path
       class="cls-35"
       d="m 96.57,204.34 c 0.07,1.44 0.52,5.69 -3.51,5.69 -4.03,0 -2.68,-4.76 -2.68,-4.76 a 52.87,52.87 0 0 1 6.19,-0.93 z"
       id="path447"
       style="fill:url(#linearGradient247)" />
    <path
       class="cls-33"
       d="m 95.72,204 c -4.62,-0.06 -7.29,1.56 -4.37,1.78 2.92,0.22 7.42,-1.73 4.37,-1.78 z"
       id="path449" />
    <path
       class="cls-36"
       d="m 95.11,210.34 c -0.37,-1.7 -2.1,-1.79 -3,-0.29"
       id="path451" />
    <path
       class="cls-37"
       d="m 101.79,205.12 c -0.4,1.07 -1.77,4.92 1.26,5.9 3.03,0.98 3.26,-4 3.26,-4 0,0 -3.14,-1.42 -4.52,-1.9 z"
       id="path453"
       style="fill:url(#linear-gradient-2)" />
    <path
       class="cls-33"
       d="m 102.56,205 c 3.36,0.69 5.38,2.89 2.33,2.07 -3.05,-0.82 -4.08,-2.4 -2.33,-2.07 z"
       id="path455" />
    <path
       class="cls-36"
       d="m 104.12,210.91 c -0.49,-2 -2.59,-1.75 -2.87,-0.23"
       id="path457" />
    <path
       class="cls-33"
       d="m 78.59,206.19 c -1.81,3.35 -1.32,7.32 0.07,8.92 1.88,-3.27 -0.07,-8.92 -0.07,-8.92 z"
       id="path459" />
    <path
       class="cls-31"
       d="m 86.71,232.87 c -4,0 -8.08,-2.36 -8.74,-4 a 1.42,1.42 0 0 1 0.61,-1.76 c 0.75,-0.42 1.25,-0.23 2,0.66 0.86,1.07 5.5,2.79 9.86,1.87 a 1.42,1.42 0 1 1 0.61,2.77 29.13,29.13 0 0 1 -4.34,0.46 z"
       id="path461" />
    <path
       class="cls-27"
       d="m 140.37,259 c 0,0 -3.84,-0.2 -3.1,2.46 a 2.16,2.16 0 0 0 4.26,0 C 142,259.41 140.37,259 140.37,259 Z"
       id="path463" />
    <path
       class="cls-27"
       d="m 139.84,262.59 c 0,0 -3.83,-0.2 -3.09,2.46 a 2.16,2.16 0 0 0 4.25,0 c 0.48,-2.05 -1.16,-2.46 -1.16,-2.46 z"
       id="path465" />
    <path
       class="cls-27"
       d="m 140,266 c 0,0 -3.35,-0.17 -2.7,2.15 a 1.88,1.88 0 0 0 3.71,0 C 141.43,266.36 140,266 140,266 Z"
       id="path467" />
    <path
       class="cls-27"
       d="m 140,269.22 c 0,0 -2.5,-0.14 -2,1.6 a 1.41,1.41 0 0 0 2.77,0 c 0.33,-1.37 -0.77,-1.6 -0.77,-1.6 z"
       id="path469" />
    <path
       class="cls-28"
       d="m 88,416.6 c 0,0 -1.71,1.16 -1.93,1.73 -0.22,0.57 0.5,1.55 0.24,2 a 3.79,3.79 0 0 1 -3.3,0.86 c -1.46,-0.31 -1.81,-1.67 -2.16,-2 -0.35,-0.33 -1.48,5.58 -0.7,6.66 0.78,1.08 4.67,0.13 7,0.48 2.33,0.35 7.85,1.96 11.85,1.67 4,-0.29 5.39,-1.12 5.4,-2.25 0,-1.92 -1.35,-2.8 -4.21,-3.56 -2.86,-0.76 -9.4,-2.68 -9.83,-3.1 A 23.86,23.86 0 0 0 88,416.6 Z"
       id="path471" />
  </g>
  <rect
     style="opacity:0.999;fill:none;fill-opacity:0;stroke:none;stroke-width:0"
     id="rect249"
     width="414.76562"
     height="46.436867"
     x="32.716881"
     y="5.2769156" />
</svg>
