<svg xmlns="http://www.w3.org/2000/svg" xmlns:xlink="http://www.w3.org/1999/xlink" viewBox="0 0 500 500"><defs><style>.cls-1,.cls-36{fill:none;}.cls-2{fill:#fff;}.cls-3{fill:#dff0ff;}.cls-4{fill:#002434;}.cls-5{fill:#009dcb;}.cls-6{fill:#0071a0;}.cls-7{fill:#aeaeae;}.cls-8{fill:#8c8d8d;}.cls-11,.cls-9{fill:#c2e5fa;}.cls-9{opacity:0.56;}.cls-10{fill:#007296;}.cls-11{opacity:0.29;}.cls-12{fill:url(#Degradado_sin_nombre_4);}.cls-13{fill:#0a6c8b;}.cls-14{fill:url(#Degradado_sin_nombre_3);}.cls-15{fill:#a80d3a;}.cls-16{fill:#570918;}.cls-17{fill:#86d0f4;}.cls-18{fill:url(#Degradado_sin_nombre_2);}.cls-19{fill:#004d74;}.cls-20{clip-path:url(#clip-path);}.cls-21{fill:#ffb900;}.cls-22{fill:#ff9c00;}.cls-23{fill:#ffd500;}.cls-24{fill:#009ec9;}.cls-25{fill:#007fab;}.cls-26{fill:#d1a87e;}.cls-27{fill:#e8c0a8;}.cls-28{fill:#2d2a25;}.cls-29{fill:#05496a;}.cls-30{fill:#005d87;}.cls-31{fill:#e40231;}.cls-32{fill:#ad1c2a;}.cls-33{fill:#004b61;}.cls-34{fill:#a56052;}.cls-35{fill:url(#linear-gradient);}.cls-36{stroke:#4b2b19;stroke-miterlimit:10;stroke-width:0.55px;}.cls-37{fill:url(#linear-gradient-2);}</style><linearGradient id="Degradado_sin_nombre_4" x1="314.64" y1="163.14" x2="285.14" y2="221.25" gradientUnits="userSpaceOnUse"><stop offset="0" stop-color="#a80d3a"/><stop offset="1" stop-color="#47050f"/></linearGradient><linearGradient id="Degradado_sin_nombre_3" x1="295.11" y1="204.91" x2="329.65" y2="141.22" gradientUnits="userSpaceOnUse"><stop offset="0" stop-color="#e50050"/><stop offset="1" stop-color="#ec6667"/></linearGradient><linearGradient id="Degradado_sin_nombre_2" x1="195.02" y1="227.58" x2="245.91" y2="222.1" gradientUnits="userSpaceOnUse"><stop offset="0" stop-color="#004d6e"/><stop offset="1" stop-color="#041824"/></linearGradient><clipPath id="clip-path"><path class="cls-1" d="M181.51,168c0-6.41,22.52-5.22,44.56-1.88,17.34,2.62,24.23,24.9,26.3,39.52a63,63,0,0,1,.56,9.41v68.39l-30.31-7.58-62.08,3.35L157.19,215l9.58-1.64S181.51,169.32,181.51,168Z"/></clipPath><linearGradient id="linear-gradient" x1="-11881.74" y1="-1786.27" x2="-11883.69" y2="-1781.76" gradientTransform="matrix(-0.94, -0.33, -0.33, 0.94, -11711.91, -2034.12)" gradientUnits="userSpaceOnUse"><stop offset="0" stop-color="#c9926a"/><stop offset="1" stop-color="#c9926a" stop-opacity="0"/></linearGradient><linearGradient id="linear-gradient-2" x1="-12160.56" y1="-705.57" x2="-12159.82" y2="-700.91" gradientTransform="matrix(-0.99, -0.15, -0.15, 0.99, -12022.48, -942.35)" xlink:href="#linear-gradient"/></defs><title>post</title><g id="BACKGROUND"><rect class="cls-2" width="500" height="500"/></g><g id="OBJECTS"><ellipse class="cls-3" cx="296.12" cy="409.96" rx="126.34" ry="34.76"/><ellipse class="cls-3" cx="100.19" cy="422.16" rx="76.94" ry="15.2"/><path class="cls-4" d="M345.1,394.58c.22,6.93-20.53,13.21-45.73,14s-45.31-4.1-45.54-11c0-.28.13-2.83.13-2.83s20.39-10.43,44.58-11.23c24.73-.82,46.69,8.21,46.69,8.21S345.09,394.45,345.1,394.58Z"/><ellipse class="cls-5" cx="299.59" cy="393.25" rx="45.66" ry="12.55" transform="translate(-12.82 10.11) rotate(-1.89)"/><path class="cls-3" d="M317.84,97.09a315.53,315.53,0,0,0,36.38-33.61s-3.46,18.39-3.61,49.4,17.26,51.29,44.19,55.4l49,7.48-40.87,28c-22.47,15.38-28,44.31-15.77,69.08a383.65,383.65,0,0,0,24.68,42.95l-47.36-14.51c-26-8-52.78,4.72-63.84,30.75s-18.19,46.07-18.19,46.07-6.75-20-18.19-46.07-37.8-37.93-63.84-30.75S153,315.78,153,315.78l31.62-55a37.13,37.13,0,0,0-11.21-49.14l-52.36-35.86s20.47-2.11,49-7.48,45.35-25.66,44.18-55.4-3.6-49.4-3.6-49.4A367.09,367.09,0,0,0,247,97.09C269.2,115.16,295.42,114.94,317.84,97.09Z"/><circle class="cls-3" cx="370.83" cy="132.2" r="10.17"/><path class="cls-3" d="M401.55,161.91a6,6,0,1,1-6-6A6,6,0,0,1,401.55,161.91Z"/><path class="cls-3" d="M397,139.73a1.71,1.71,0,1,1-1.71-1.71A1.72,1.72,0,0,1,397,139.73Z"/><circle class="cls-3" cx="380.79" cy="97.36" r="2.84"/><circle class="cls-3" cx="437.95" cy="131.77" r="3.7"/><circle class="cls-3" cx="294.34" cy="89.4" r="8.82" transform="translate(158.83 365.56) rotate(-80.76)"/><path class="cls-3" d="M325.91,68.07a.58.58,0,0,1-.57.57.57.57,0,1,1,0-1.14A.58.58,0,0,1,325.91,68.07Z"/><path class="cls-3" d="M261.64,76.32a5.12,5.12,0,1,1-5.12-5.12A5.12,5.12,0,0,1,261.64,76.32Z"/><path class="cls-3" d="M287,53a4.84,4.84,0,1,1-4.83-4.84A4.83,4.83,0,0,1,287,53Z"/><path class="cls-3" d="M215.29,122.67a6.83,6.83,0,1,1-6.82-6.83A6.82,6.82,0,0,1,215.29,122.67Z"/><circle class="cls-3" cx="191.4" cy="98.78" r="5.12"/><path class="cls-3" d="M164.11,158.5a3.13,3.13,0,1,1-3.13-3.13A3.13,3.13,0,0,1,164.11,158.5Z"/><circle class="cls-3" cx="173.49" cy="136.03" r="9.95"/><path class="cls-3" d="M135.39,125.51a.86.86,0,0,1-.86.85.85.85,0,1,1,0-1.7A.86.86,0,0,1,135.39,125.51Z"/><path class="cls-3" d="M165.81,89.11a4.55,4.55,0,1,1-4.55-4.55A4.54,4.54,0,0,1,165.81,89.11Z"/><circle class="cls-3" cx="176.33" cy="54.14" r="2.84"/><path class="cls-3" d="M426.57,92.24A2.56,2.56,0,1,1,424,89.68,2.56,2.56,0,0,1,426.57,92.24Z"/><path class="cls-3" d="M318.8,54.71a2,2,0,1,1-2-2A2,2,0,0,1,318.8,54.71Z"/><circle class="cls-3" cx="407.8" cy="220.2" r="11.94" transform="translate(102.94 569.28) rotate(-77.24)"/><path class="cls-3" d="M443.92,198.31a4.84,4.84,0,1,1-4.84-4.84A4.84,4.84,0,0,1,443.92,198.31Z"/><circle class="cls-3" cx="432.26" cy="246.36" r="5.69"/><path class="cls-3" d="M403.54,257.74a5.41,5.41,0,1,1-5.41-5.4A5.41,5.41,0,0,1,403.54,257.74Z"/><circle class="cls-3" cx="421.45" cy="286.17" r="2.84"/><path class="cls-3" d="M452.73,231a.57.57,0,0,1-.57.57.58.58,0,0,1-.57-.57.57.57,0,0,1,.57-.57A.56.56,0,0,1,452.73,231Z"/><path class="cls-3" d="M441.07,281.06a3.7,3.7,0,1,1-3.69-3.7A3.69,3.69,0,0,1,441.07,281.06Z"/><path class="cls-3" d="M355.38,321.15a2.74,2.74,0,1,1-2.74-2.74A2.74,2.74,0,0,1,355.38,321.15Z"/><circle class="cls-3" cx="377.94" cy="310.91" r="13.65"/><path class="cls-3" d="M313.4,313.47a4,4,0,1,1-4-4A4,4,0,0,1,313.4,313.47Z"/><circle class="cls-3" cx="331.03" cy="341.06" r="0.57"/><circle class="cls-3" cx="303.73" cy="356.41" r="2.84"/><circle class="cls-3" cx="325.62" cy="323.14" r="10.52"/><path class="cls-3" d="M326.19,352.71a4.55,4.55,0,1,1-4.55-4.54A4.55,4.55,0,0,1,326.19,352.71Z"/><path class="cls-3" d="M374,350.44a4,4,0,1,1-4-4A4,4,0,0,1,374,350.44Z"/><circle class="cls-3" cx="353.21" cy="384.56" r="1.42"/><circle class="cls-3" cx="404.96" cy="347.6" r="0.85"/><circle class="cls-3" cx="161.26" cy="219.58" r="15.41"/><circle class="cls-3" cx="169.12" cy="258.58" r="10.06" transform="translate(-133.31 195.32) rotate(-45)"/><circle class="cls-3" cx="137.04" cy="255.12" r="4.72"/><path class="cls-3" d="M126.35,204.8a2.83,2.83,0,1,1-2.83-2.83A2.83,2.83,0,0,1,126.35,204.8Z"/><path class="cls-3" d="M110.31,239.08a4.4,4.4,0,1,1-4.4-4.4A4.4,4.4,0,0,1,110.31,239.08Z"/><path class="cls-3" d="M94.59,215.18a1.89,1.89,0,1,1-1.89-1.89A1.89,1.89,0,0,1,94.59,215.18Z"/><circle class="cls-3" cx="94.9" cy="289.08" r="1.26"/><path class="cls-3" d="M140.82,294.11a.63.63,0,1,1-.63-.63A.63.63,0,0,1,140.82,294.11Z"/><path class="cls-3" d="M168.81,283.73a3.46,3.46,0,1,1-3.46-3.46A3.46,3.46,0,0,1,168.81,283.73Z"/><circle class="cls-3" cx="217.55" cy="307" r="10.38" transform="translate(-153.37 243.75) rotate(-45)"/><path class="cls-3" d="M185.79,333.42a6.29,6.29,0,1,1-6.29-6.29A6.29,6.29,0,0,1,185.79,333.42Z"/><path class="cls-3" d="M245.54,338.14a6.29,6.29,0,1,1-6.29-6.29A6.29,6.29,0,0,1,245.54,338.14Z"/><circle class="cls-3" cx="253.4" cy="318.95" r="9.12" transform="translate(-102.32 120.43) rotate(-22.37)"/><path class="cls-3" d="M266.29,352.92a1.89,1.89,0,1,1-1.88-1.89A1.88,1.88,0,0,1,266.29,352.92Z"/><circle class="cls-3" cx="229.81" cy="378.39" r="5.97"/><path class="cls-3" d="M203.71,355.43a1.57,1.57,0,1,1-1.57-1.57A1.57,1.57,0,0,1,203.71,355.43Z"/><path class="cls-3" d="M181.07,385.31a3.78,3.78,0,1,1-3.77-3.78A3.77,3.77,0,0,1,181.07,385.31Z"/><path class="cls-3" d="M247.37,375.42a3.15,3.15,0,1,1-3.15-3.15A3.15,3.15,0,0,1,247.37,375.42Z"/><path class="cls-5" d="M343.35,383.57c-3.21-2.07-6-4-8.41-5.8l-2.64-.09,1.47-.76c-1.8-1.31-3.46-2.55-5.06-3.7l-2.67.29,1.26-1.29c-1.71-1.2-3.39-2.29-5.13-3.28l-3.37.82,1.58-1.8a46.15,46.15,0,0,0-13.73-4.34q2.69-1,5.32-2.09a55.23,55.23,0,0,0,13.67,7.15l.6-1.68.81,2.2c1.92.7,3.92,1.35,6,1.95l.3-1.6,1.62,2.14c2.48.67,5,1.25,7.53,1.7l-.06-2.11,1.5,2.36a65.77,65.77,0,0,0,9.75.91,33.33,33.33,0,0,0-6.61-4l-1.23.64.51-1A113.07,113.07,0,0,0,332.56,365l-2.29,1.25.69-1.75a84.72,84.72,0,0,0-17.32-3.62c3.19-1.37,6.32-2.86,9.41-4.44a27.49,27.49,0,0,0,4.73,3.41l.19-1.42,1.43,2.3a54.11,54.11,0,0,0,8.28,3.36l.23-1.71,1.37,2.2c2.66.79,5.33,1.42,7.86,1.93l-.29-1.54,1,1.68a114.75,114.75,0,0,0,14.49,1.85c-3.37-1.5-6.46-3-9.37-4.35l-1.88.77,1.27-1.06c-2.14-1-4.2-2-6.21-2.85l-1.82.75.76-1.21a74.41,74.41,0,0,0-8.57-3.13l-2.12,1.11L335,357a48.92,48.92,0,0,0-10.15-1.51c2.2-1.17,4.36-2.39,6.51-3.65,4.4,3.59,10.06,5.84,15.73,7.23l.41-1.36,1,1.68a75.27,75.27,0,0,0,7.8,1.28l.17-1.42,1,1.54a89,89,0,0,0,14,.32c-3.51-1.16-6.55-2.31-9.3-3.4l-2.48.56,1.18-1.07c-2-.8-3.86-1.56-5.64-2.25l-2.42.92.85-1.52c-1.9-.71-3.73-1.33-5.6-1.84l-2.95,1.59,1-2.07a44.22,44.22,0,0,0-13.75-.75q3.12-1.86,6.17-3.84c3.16,1.77,8.1,3.35,13.77,4.44l.26-1.61,1.09,1.85c1.83.32,3.73.59,5.66.8v-1.49l1.81,1.67c2.33.2,4.68.31,7,.32l-.41-1.9,1.74,1.89a58.35,58.35,0,0,0,8.86-.75,30.64,30.64,0,0,0-6.58-2.53l-1,.78.29-1a101.84,101.84,0,0,0-13.18-2.54l-1.83,1.5.32-1.69c-6.5-.76-12.83-1-16.87-.37q2.43-1.62,4.81-3.3c.91-.65,1.81-1.33,2.71-2a24.43,24.43,0,0,0,5.72,1.86l-.25-1.29,1.92,1.59a50.57,50.57,0,0,0,8.22.5l-.3-1.57,1.84,1.53c2.55-.1,5.07-.33,7.43-.64l-.7-1.25,1.4,1.16a104.43,104.43,0,0,0,13.19-2.65c-3.38-.32-6.51-.69-9.46-1l-1.41,1.23.79-1.3c-2.16-.25-4.24-.49-6.26-.67l-1.37,1.19.31-1.28a69.76,69.76,0,0,0-8.4-.21l-1.53,1.59.06-1.51a45.68,45.68,0,0,0-10,1.86q4.47-3.36,8.73-7a19.62,19.62,0,0,0,5.25.83l-.38-1,1.76,1a39.74,39.74,0,0,0,6.71-.71l-.45-1.22,1.69,1c2.05-.42,4.05-1,5.92-1.51l-.74-.92,1.29.75a85.78,85.78,0,0,0,10.3-3.93c-2.78.2-5.35.32-7.79.44l-1,1.18.47-1.15c-1.79.08-3.49.18-5.15.31l-.95,1.14.08-1.07a56,56,0,0,0-6.82,1l-1,1.49L366,330a37.36,37.36,0,0,0-8.6,3.25q3.81-3.27,7.42-6.76a.36.36,0,0,0,0,.09l.08-.21.29-.27a26.18,26.18,0,0,0,11.33-.82l-.2-.9,1.1.65a47.4,47.4,0,0,0,4.89-1.73l-.35-.87,1,.58a58.32,58.32,0,0,0,8.12-4.22c-2.39.44-4.5.74-6.42,1l-1.25,1.1.34-1-3.95.49-1.1,1.3v-1.15c-1.32.19-2.57.42-3.8.72L373.78,323l-.07-1.51a28.18,28.18,0,0,0-7.29,3.35c1.72-1.7,3.39-3.44,5-5.21a25.94,25.94,0,0,0,7.49-1.48l-.3-.81,1,.58c.93-.32,1.88-.68,2.83-1.08l-.39-.69,1.27.31c1.14-.51,2.26-1.06,3.34-1.66l-.67-.77,1.29.43a30.08,30.08,0,0,0,3.92-2.63,16,16,0,0,0-3.7.52l-.27.61-.11-.52a52.65,52.65,0,0,0-6.78,2.21l-.46,1.16-.29-.86a43.2,43.2,0,0,0-7.24,3.67c2-2.2,4-4.43,5.89-6.73q-3.21,3.68-6.64,7.16a37.17,37.17,0,0,0,1.75-8.9l-.91,0,1-.79a54.16,54.16,0,0,0,.16-7.12l-.53,0,.51-.43a16.87,16.87,0,0,0-.57-3.7,31.42,31.42,0,0,0-1.39,4.52l.79,1.11-.94-.42c-.26,1.2-.47,2.44-.62,3.67l.66,1.13-.77-.17c-.11,1-.18,2-.22,3l.84.78-.87-.05a25.61,25.61,0,0,0,.78,7.7l-.19.19,0,0h0c-1.86,1.89-3.76,3.72-5.7,5.52a28.36,28.36,0,0,0,2-8.34l-1.49.25,1.56-1.54c0-1.27,0-2.54-.1-3.87l-1.11.25,1-1.34c-.1-1.25-.23-2.56-.35-4l-.89.53.82-1.45c-.16-1.93-.31-4.05-.38-6.48A58.77,58.77,0,0,0,364,308l.78.91-.92-.16a49.54,49.54,0,0,0-.68,5.14l.87.93h-.93a26.58,26.58,0,0,0,1.47,11q-3.93,3.6-8.07,7a37.11,37.11,0,0,0,2.32-8.79l-1.24,0,1.38-1.16a56.08,56.08,0,0,0,.26-6.89l-1.06.19,1-1.06c0-1.66-.12-3.37-.22-5.15l-1.1.58,1.07-1.09c-.13-2.43-.27-5-.36-7.79a86.4,86.4,0,0,0-2.84,10.65l.88,1.21-1-.64c-.37,1.91-.69,4-.91,6l1.16,1.59-1.27-.33a39.93,39.93,0,0,0,0,6.74l1.2,1.65-1.05-.27a20.53,20.53,0,0,0,1.28,4.92c-2.85,2.29-5.78,4.51-8.77,6.62a44.67,44.67,0,0,0,3.08-9.67l-1.51-.12,1.77-1.32a69.17,69.17,0,0,0,.83-8.37l-1.31.15,1.35-1.21c.07-2,.09-4.12.11-6.3l-1.39.63,1.39-1.25c0-3,0-6.12.14-9.52a103.4,103.4,0,0,0-4.26,12.77l1,1.53-1.16-.85c-.59,2.31-1.13,4.78-1.54,7.3l1.29,2-1.52-.5a48.88,48.88,0,0,0-.52,8.22l1.34,2.1L345.1,335a24.92,24.92,0,0,0,1,5.6c-.87.6-1.73,1.22-2.61,1.81-1.64,1.1-3.3,2.16-5,3.21,1.51-3.81,2.77-9.93,3.54-16.33l-1.71-.08,1.89-1.43a103.85,103.85,0,0,0,.64-13.41l-1,.06,1-.78a30.64,30.64,0,0,0-.91-7,59.94,59.94,0,0,0-2.81,8.43l1.42,2.14-1.74-.85c-.55,2.26-1,4.58-1.34,6.89l1.2,2.15-1.45-.36q-.37,2.89-.56,5.69l1.55,1.5-1.63-.13a49.87,49.87,0,0,0,1,14.08c-2.09,1.28-4.21,2.51-6.34,3.7a43.9,43.9,0,0,0,2.35-13.6l-2.24.53,2.21-2.51c-.08-1.94-.27-3.87-.54-5.87l-1.67.48,1.44-2.14c-.27-1.89-.59-3.87-.92-6l-1.31.91,1.09-2.29c-.44-2.92-.88-6.14-1.23-9.83a89.44,89.44,0,0,0-2.81,13.67l1.29,1.31-1.43-.15a73.19,73.19,0,0,0-.5,7.88l1.41,1.34-1.41.09c.08,5.74,1,11.64,3.38,16.68-2.26,1.24-4.53,2.45-6.85,3.58-.41.21-.83.4-1.25.6A49,49,0,0,0,324,343l-1.63.15,1.65-1.74a74.45,74.45,0,0,0-.67-9.1l-1.37.4,1.22-1.54c-.3-2.18-.66-4.42-1-6.75l-1.36.92,1.25-1.59c-.53-3.18-1.1-6.55-1.62-10.21A112.62,112.62,0,0,0,318.19,328l1.33,1.46-1.4-.69c-.2,2.57-.33,5.32-.3,8.09l1.75,1.92-1.72-.25a55,55,0,0,0,1,8.89l1.82,2-1.41-.2a27.3,27.3,0,0,0,2.18,5.85q-4.86,2.3-9.87,4.24c1.39-4,2.29-10.82,2.62-17.89l-1.8.05,1.86-1.64a108.28,108.28,0,0,0-.37-14.06l-1.06.14,1-.89a31.76,31.76,0,0,0-1.49-7.23,61.93,61.93,0,0,0-2.29,9l1.66,2.13-1.89-.75c-.39,2.41-.68,4.86-.86,7.3l1.42,2.16-1.55-.26c-.11,2-.16,4-.14,6l1.74,1.45-1.71,0a51.67,51.67,0,0,0,2.17,14.8q-2.62,1-5.28,1.89a39,39,0,0,0,.53-12.12l-1.94.73,1.69-2.49c-.28-1.72-.67-3.42-1.13-5.18l-1.44.62,1.05-2.07c-.46-1.66-1-3.39-1.5-5.26l-1.07,1,.73-2.17c-.72-2.55-1.48-5.37-2.2-8.62a79.06,79.06,0,0,0-1,12.5l1.29,1-1.29,0a67.66,67.66,0,0,0,.43,7.09l1.41,1-1.24.23a36.87,36.87,0,0,0,4.58,14.05l-2.33.74.77,2.41c.94-.32,1.87-.64,2.8-1,3.47,4.7,8.54,8.41,13.85,11.26l.76-1.24.55,1.92a75.91,75.91,0,0,0,7.47,3.3l.55-1.37.58,1.8A92.77,92.77,0,0,0,343.35,383.57Z"/><path class="cls-5" d="M313.31,311.67c-.94,3.71-1.9,6.92-2.81,9.83l.76,2.52-1.19-1.15c-.68,2.13-1.32,4.1-1.9,6l1.13,2.43-1.63-.77c-.58,2-1.09,3.94-1.47,5.9l1.85,2.94-2.2-.92a46,46,0,0,0,.27,14.39q-1.8-2.22-3.68-4.37a55.44,55.44,0,0,0,2.41-15.24l-1.79,0,1.83-1.47c.05-2,0-4.15-.05-6.28l-1.62.23,1.52-2.22c-.16-2.57-.42-5.15-.79-7.68l-2,.73,1.76-2.18a65.78,65.78,0,0,0-2.25-9.53,33.09,33.09,0,0,0-1.67,7.54l1,1-1.1-.17a114.71,114.71,0,0,0-.6,14.73l1.92,1.78-1.87-.11a84,84,0,0,0,2.09,17.58c-2.32-2.59-4.73-5.08-7.21-7.5a27.72,27.72,0,0,0,1.72-5.58l-1.4.28,1.72-2.09a53.52,53.52,0,0,0,.54-8.92l-1.7.33,1.66-2c-.11-2.77-.36-5.5-.69-8.07l-1.36.77,1.26-1.53a114.86,114.86,0,0,0-2.87-14.32c-.35,3.68-.76,7.07-1.13,10.28l1.32,1.53-1.4-.86c-.28,2.34-.53,4.6-.73,6.79l1.3,1.49-1.39-.34a73.58,73.58,0,0,0-.23,9.12l1.73,1.66-1.64-.07a49.3,49.3,0,0,0,1.8,10.1c-1.8-1.71-3.65-3.37-5.52-5,2-5.32,2.32-11.4,1.82-17.22l-1.41.05,1.27-1.47a74.73,74.73,0,0,0-1.27-7.8L286,307l1.15-1.42A88.57,88.57,0,0,0,283,292.26c0,3.71-.11,6.95-.26,9.9l1.32,2.18-1.39-.78c-.12,2.16-.25,4.16-.34,6.06l1.65,2-1.71-.32c-.07,2-.07,4,0,5.9l2.45,2.28-2.28-.31a43.61,43.61,0,0,0,3.67,13.27c-1.84-1.58-3.71-3.13-5.61-4.62.67-3.57.59-8.75-.19-14.47l-1.61.27,1.41-1.63c-.28-1.84-.63-3.72-1.05-5.61l-1.41.48,1-2.25c-.55-2.27-1.2-4.54-1.94-6.74l-1.66,1,1.23-2.26a58.18,58.18,0,0,0-3.54-8.15,31.39,31.39,0,0,0-.3,7l1.06.7-1,0a103,103,0,0,0,1.81,13.3l2,1.26-1.7.23c1.35,6.4,3.17,12.47,5,16.11-1.54-1.2-3.09-2.36-4.66-3.51-.91-.66-1.84-1.29-2.76-1.93a24.74,24.74,0,0,0-.06-6l-1.15.65L272,314a49.63,49.63,0,0,0-2.15-7.95l-1.39.79.86-2.24c-.91-2.38-1.94-4.69-3-6.84l-1,1.07.65-1.7a103.83,103.83,0,0,0-6.72-11.66c.78,3.31,1.42,6.39,2,9.3l1.61.95-1.49-.34c.46,2.13.9,4.17,1.37,6.15l1.57.92-1.32.11a68.79,68.79,0,0,0,2.49,8l2,.94-1.45.42a45.55,45.55,0,0,0,5,8.87q-4.62-3.18-9.43-6a19.69,19.69,0,0,0-.88-5.24l-.84.68.41-2a40.7,40.7,0,0,0-2.82-6.14l-1,.83.39-1.92c-1.06-1.81-2.2-3.54-3.33-5.13l-.63,1,.29-1.47a85.82,85.82,0,0,0-7-8.51c1.08,2.57,2,5,2.9,7.25l1.43.54-1.24-.07c.65,1.66,1.28,3.25,1.93,4.78l1.39.53-1,.27a56.07,56.07,0,0,0,3.09,6.15l1.74.49-1.12.54a37.31,37.31,0,0,0,5.83,7.11q-4.32-2.56-8.78-4.87l.08-.07h-.23l-.34-.18a26.38,26.38,0,0,0-4.39-10.48l-.8.47.27-1.25c-1-1.46-2.12-2.83-3.2-4.08l-.71.61.21-1.18a58.4,58.4,0,0,0-6.59-6.35c1.18,2.13,2.13,4,3,5.77l1.44.84h-1c.62,1.28,1.18,2.47,1.73,3.59l1.58.63-1.09.35c.6,1.19,1.21,2.3,1.89,3.38l2.13.54-1.42.54a28.42,28.42,0,0,0,5.51,5.84c-2.16-1.09-4.34-2.12-6.55-3.11A26,26,0,0,0,240,298.8l-.67.54.23-1.11c-.6-.79-1.25-1.57-1.93-2.35l-.53.59-.11-1.3c-.84-.92-1.72-1.8-2.63-2.64l-.52.89v-1.36a31.2,31.2,0,0,0-3.74-2.88,16.66,16.66,0,0,0,1.67,3.35l.67.05-.46.27a53.43,53.43,0,0,0,4.26,5.72l1.25.07-.73.54a43,43,0,0,0,5.79,5.7c-2.72-1.21-5.47-2.37-8.26-3.43,3,1.24,6,2.59,8.9,4a37.55,37.55,0,0,0-9,1.19l.27.87-1.05-.68a52.69,52.69,0,0,0-6.81,2.12l.21.49-.57-.35a16.74,16.74,0,0,0-3.32,1.72,31.4,31.4,0,0,0,4.72-.12l.81-1.1-.11,1c1.23-.14,2.47-.34,3.68-.58l.86-1,.08.79c1-.23,2-.48,2.94-.76l.47-1.05.23.84a25.78,25.78,0,0,0,7-3.19l.25.12h0c2.38,1.16,4.72,2.37,7,3.63a28.68,28.68,0,0,0-8.52.81l.71,1.34-2-1c-1.21.37-2.4.82-3.63,1.32l.59,1-1.61-.55c-1.15.49-2.35,1-3.65,1.59l.8.68-1.64-.32c-1.78.77-3.75,1.59-6,2.43a59.11,59.11,0,0,0,9.14-.5l.61-1,.15.93a48.36,48.36,0,0,0,5.08-1l.62-1.12.29.88a26.55,26.55,0,0,0,10-4.91q4.67,2.58,9.16,5.42A37.43,37.43,0,0,0,252,316l.37,1.19-1.55-.94a54.39,54.39,0,0,0-6.6,1.95l.52.95-1.34-.65c-1.56.57-3.15,1.19-4.81,1.85l.9.86-1.38-.67c-2.26.9-4.65,1.86-7.26,2.83a85.77,85.77,0,0,0,11-.7l.86-1.22-.29,1.14c1.93-.26,4-.61,6-1.07l1.14-1.6.09,1.3a40.4,40.4,0,0,0,6.4-2.14l1.18-1.66.08,1.08a20,20,0,0,0,4.24-2.79q4.64,3,9.08,6.2a45.42,45.42,0,0,0-10.14.17l.36,1.47L259,322.28a69.73,69.73,0,0,0-8.2,1.89l.56,1.19-1.58-.89c-1.94.58-3.93,1.22-6,1.91l1,1.11-1.63-.92c-2.82.93-5.81,1.92-9.06,2.91a104.27,104.27,0,0,0,13.45,0l1.14-1.42-.44,1.37c2.38-.18,4.9-.45,7.42-.86l1.5-1.87v1.6a50.84,50.84,0,0,0,8-2.13l1.56-1.94v1.31a24.53,24.53,0,0,0,5-2.77c.85.63,1.71,1.25,2.55,1.9,1.56,1.2,3.11,2.43,4.63,3.68-4.09-.21-10.29.55-16.6,1.85l.47,1.65-2-1.33a103.46,103.46,0,0,0-12.91,3.67l.37.94-1.05-.68a30.35,30.35,0,0,0-6.33,3.09,59.87,59.87,0,0,0,8.88,0l1.57-2-.24,1.92c2.32-.21,4.65-.52,6.95-.93l1.66-1.82.13,1.49c1.9-.38,3.77-.81,5.57-1.29l.92-1.94.39,1.58a50.19,50.19,0,0,0,13-5.42q2.82,2.35,5.53,4.83A44,44,0,0,0,271.65,336l1.23,1.95-3.09-1.29c-1.81.69-3.58,1.49-5.39,2.38l1,1.43-2.49-.68c-1.71.86-3.48,1.8-5.4,2.79l1.28.95-2.52-.31c-2.63,1.35-5.54,2.8-8.92,4.31a89.64,89.64,0,0,0,13.85-1.7l.83-1.63.31,1.4a77.21,77.21,0,0,0,7.64-2.05l.81-1.76.54,1.31c5.41-1.91,10.71-4.65,14.72-8.53,1.9,1.74,3.77,3.52,5.58,5.35l1,1A48.34,48.34,0,0,0,281,343l.66,1.5-2.17-1a74.51,74.51,0,0,0-8.42,3.54l.82,1.17-1.85-.66c-2,1-4,2-6.07,3.15l1.31,1-1.9-.68c-2.85,1.52-5.86,3.14-9.16,4.79a113.57,113.57,0,0,0,14.38-2.53l1-1.73-.21,1.55c2.5-.63,5.14-1.39,7.76-2.3l1.26-2.27.31,1.7a54.16,54.16,0,0,0,8.12-3.75l1.31-2.37.25,1.41a27.27,27.27,0,0,0,4.86-3.93c2.48,2.58,4.88,5.25,7.17,8-4.28,0-11,1.28-17.79,3.23l.62,1.68-2.15-1.24a109.93,109.93,0,0,0-13.21,4.85l.47.95-1.16-.63a32,32,0,0,0-6.37,3.72,62.58,62.58,0,0,0,9.28-.71l1.49-2.25-.11,2c2.41-.4,4.82-.91,7.2-1.51l1.59-2,.24,1.55c2-.54,3.88-1.14,5.72-1.78l.82-2.11.53,1.63c5.58-2.05,10.34-4.45,13.32-6.78q1.79,2.16,3.48,4.4a39.2,39.2,0,0,0-11.65,3.36l1.31,1.61-2.9-.81c-1.54.82-3,1.73-4.55,2.73l1.05,1.16-2.3-.33c-1.42,1-2.9,2-4.5,3.1l1.25.71h-2.29c-2.19,1.5-4.62,3.11-7.47,4.84a79.87,79.87,0,0,0,12.16-3.06l.56-1.56.43,1.22a66.63,66.63,0,0,0,6.59-2.68l.53-1.66.62,1.1a36.67,36.67,0,0,0,11.84-8.83c.49.66,1,1.32,1.45,2l2-1.5c-.6-.79-1.2-1.57-1.82-2.34,3.35-4.79,5.25-10.77,6.25-16.72l-1.42-.33,1.65-1.13a76.41,76.41,0,0,0,.74-8.14l-1.47-.08,1.51-1.12A91.4,91.4,0,0,0,313.31,311.67Z"/><path class="cls-6" d="M273.47,377.71c-4.35.14-8.74-2.15-11.81-4.48a36.33,36.33,0,0,0-9.41-5.48,36.77,36.77,0,0,0,8.18-7.2c2.56-2.87,6.43-6,10.72-6.67,4.55-.74,8.48.26,12.53,2.24,3.51,1.71,7,5.27,10.11,7.58h0c-2.65,2.87-5.34,7-8.46,9.39C281.74,375.83,278.07,377.57,273.47,377.71Z"/><polygon class="cls-5" points="271.14 357.81 286.01 363.93 288.33 363.66 271.14 357.81"/><polygon class="cls-5" points="272.68 373.65 286.08 364.93 288.44 364.7 272.68 373.65"/><polygon class="cls-5" points="266.82 361.95 276.34 364.91 278.21 365.34 278.79 364.93 266.82 361.95"/><polygon class="cls-5" points="267.65 370.42 276.41 365.69 278.17 364.91 278.81 365.2 267.65 370.42"/><polygon class="cls-5" points="261.51 364.25 266.8 365.89 267.84 366.13 268.16 365.92 261.51 364.25"/><polygon class="cls-5" points="262.46 368.99 267.34 366.36 268.34 366.08 268.67 366.08 262.46 368.99"/><polygon class="cls-5" points="258.91 367 299.85 362.26 300.02 363.98 258.91 367"/><path class="cls-6" d="M309.12,302.42c2.59-3.48,7.12-5.49,10.85-6.45a36.42,36.42,0,0,0,10.15-4,36.62,36.62,0,0,0,.55,10.88c.65,3.8.67,8.75-1.45,12.55-2.25,4-5.48,6.48-9.55,8.42-3.52,1.68-8.46,2.16-12.22,3.19v0h0v0c-.6-3.86-2.19-8.56-2.09-12.46C305.45,310.08,306.37,306.12,309.12,302.42Z"/><polygon class="cls-5" points="326.15 312.98 312.11 320.82 310.87 322.81 326.15 312.98"/><polygon class="cls-5" points="312.79 304.33 311.29 320.25 310 322.24 312.79 304.33"/><polygon class="cls-5" points="325.59 307.03 317.36 312.64 315.85 313.84 315.82 314.54 325.59 307.03"/><polygon class="cls-5" points="318.45 302.4 316.7 312.21 316.22 314.08 315.59 314.39 318.45 302.4"/><polygon class="cls-5" points="327.1 301.44 322.52 304.56 321.69 305.23 321.65 305.61 327.1 301.44"/><polygon class="cls-5" points="322.8 299.24 321.82 304.69 321.42 305.65 321.21 305.91 322.8 299.24"/><polygon class="cls-5" points="326.57 297.69 304.81 332.7 303.36 331.76 326.57 297.69"/><path class="cls-7" d="M287.84,390.38S289.33,393,298,393s11.17-2.63,11.17-2.63V269.5H287.84Z"/><polygon class="cls-8" points="287.84 301.2 309.12 296.65 309.12 269.5 287.84 269.5 287.84 301.2"/><path class="cls-4" d="M152.34,320.46c-1.47,2-6.56,12.5-6.56,12.5a72.29,72.29,0,0,0,0,9.25c.71,5.91,4.2,11.5,13.18,14.67,22.67,8,50.5-16.63,58.12-25.81,8.16-9.83,37.39-42.41,37.39-42.41V284.2l-62.13-11S156.5,314.94,152.34,320.46Z"/><path class="cls-5" d="M218.31,161.15s119.62-11.07,141.4-7.77,28.45,37.28,28.45,48.22v64.21L254.47,284.2Z"/><path class="cls-9" d="M383.93,179.41,228.42,195.54l1.07,3.66,155.6-16.13C384.74,181.86,384.35,180.64,383.93,179.41Z"/><path class="cls-10" d="M385.82,185.73,230.4,202.29l3.26,11.1L387.87,197A80.87,80.87,0,0,0,385.82,185.73Z"/><path class="cls-11" d="M240.49,160.79s93-8.56,113-6.21C337.84,170.69,258.62,164.15,240.49,160.79Z"/><path class="cls-10" d="M254.47,284.2l133.69-18.39V201.6c-13.89,2.83-112.09,14.75-153,16.79Z"/><path class="cls-12" d="M327.8,110.45,326,110a1.14,1.14,0,0,0-1.32.62c-4.21,9.25-40.61,89.34-43.37,94.83-1.8,3.34-2.83,5.56-2.83,8.8a12.65,12.65,0,1,0,13.58-12.6c6.16-13.61,30-63.62,30-63.62l17.72,5.7,8.44-19Z"/><path class="cls-5" d="M150.19,317.54c-3.76,5-14.88,27.76,8.06,35.85s51.07-16.81,58.78-26.1c8.26-9.94,37.44-43.09,37.44-43.09l-62.13-15.51S154.4,312,150.19,317.54Z"/><path class="cls-13" d="M152.34,316c-3.72,4.94-16.06,28.42,6.62,36.42s50.5-16.63,58.12-25.81c8.16-9.83,37.39-42.4,37.39-42.4l-62.13-15.51S156.5,310.47,152.34,316Z"/><path class="cls-4" d="M153.62,320.09c4.16-5.52,40-47.3,40-47.3l58.09,14.49,2.76-3.08-62.13-15.51s-35.79,41.81-40,47.3c-5.57,7.28-9.84,16.76-5.13,26.85C145.58,333.55,151.29,323.18,153.62,320.09Z"/><path class="cls-14" d="M283.71,206.15c2.93-5.82,44.09-95.7,44.09-95.7l22.12,14.27a1.41,1.41,0,0,1,.53,1.78L341.61,146a1.42,1.42,0,0,1-1.73.76l-15.33-4.92a1.4,1.4,0,0,0-1.71.74c-3.43,7.23-22.46,47.4-28.06,59.77A12.64,12.64,0,1,1,281.21,215C281.21,211.71,282.44,209,283.71,206.15Z"/><path class="cls-15" d="M288.64,215a5.21,5.21,0,1,0,5.21-5.21A5.21,5.21,0,0,0,288.64,215Z"/><path class="cls-16" d="M291.74,215a2.11,2.11,0,1,0,2.11-2.11A2.11,2.11,0,0,0,291.74,215Z"/><path class="cls-17" d="M266.07,213.63c0-12.12-7.4-49.81-31.55-53.46-.76-.12-1.5-.2-2.22-.25.09-.32.25-.67,1.17-.8a8.93,8.93,0,0,1,2.74.18c24.15,3.66,32,42.12,32,54.24V282.3l-2.16.3Z"/><path class="cls-17" d="M371.46,203.36c0-16.72-7.37-46.81-31.41-50.24-.75-.11-1.49-.19-2.21-.24.17-.29.52-1,2.64-.94,20.57,1.67,33.13,24.73,33.13,51.33v64.61l-2.15.28Z"/><path class="cls-13" d="M192.35,193c0-6.91,7.29-35.16,31.06-31.56s31.06,40.7,31.06,52.64V284.2l-62.12-15.54Z"/><path class="cls-18" d="M193.87,193.27c0-6.57,6.93-33.44,29.54-30S253,202,253,213.32v70.15l-59.09-14.78Z"/><polygon class="cls-19" points="193.62 272.79 251.71 287.28 254.47 284.19 192.35 268.66 193.62 272.79"/><g class="cls-20"><rect class="cls-21" x="187.22" y="208.9" width="108.72" height="63.72" rx="2.2" transform="translate(-14.31 15.27) rotate(-3.52)"/><path class="cls-22" d="M291.79,207.38l-104.12,6.4c-1.22.07-2.24-.5-2.16.71l53.78,28.43a5.38,5.38,0,0,0,5.28-.33L294,207.82C294,206.61,293,207.31,291.79,207.38Z"/><path class="cls-23" d="M291.69,205.76l-104.12,6.4a2.2,2.2,0,0,0-2.06,2.33l53.64,26a5.38,5.38,0,0,0,5.28-.34L294,207.82A2.2,2.2,0,0,0,291.69,205.76Z"/><path class="cls-22" d="M191.94,273.59c3.21-2.84,6.55-5.5,9.93-8.09s6.81-5.11,10.27-7.6,7-4.87,10.56-7.2,7.17-4.61,10.91-6.7c-3.21,2.83-6.55,5.49-9.93,8.09s-6.81,5.11-10.28,7.59-7,4.88-10.55,7.2S195.67,271.49,191.94,273.59Z"/><path class="cls-22" d="M294.21,267.3c-3.54-2.42-7.17-4.65-10.85-6.81s-7.39-4.24-11.12-6.28-7.53-4-11.36-5.85-7.69-3.7-11.65-5.32c3.53,2.42,7.17,4.65,10.84,6.81s7.39,4.24,11.13,6.28,7.53,4,11.36,5.85S290.24,265.68,294.21,267.3Z"/></g><path class="cls-24" d="M391.59,220.39c1.41-.57,2.79-1.19,4.16-1.86l.06.13C394.42,219.29,393,219.87,391.59,220.39Z"/><path class="cls-24" d="M403.51,213.93a60.53,60.53,0,0,0,6.95-5.72l.46.49a55.13,55.13,0,0,1-7.17,5.58Z"/><path class="cls-24" d="M416.47,201.52a67.86,67.86,0,0,0,5-7.46l.95.57a70.34,70.34,0,0,1-5.25,7.45Z"/><path class="cls-24" d="M425.48,186a84.09,84.09,0,0,0,3.08-8.43l1.45.47a84.39,84.39,0,0,1-3.33,8.49Z"/><path class="cls-24" d="M430.78,168.9c.61-2.93,1.07-5.89,1.44-8.85l1.92.25c-.41,3-1,6-1.66,9Z"/><path class="cls-24" d="M433,151.1q.21-4.48.09-9l2.19,0c0,3,0,6.09-.22,9.13Z"/><path class="cls-24" d="M432.5,133.17q-.44-4.47-1.17-8.9l2.42-.38c.45,3,.81,6,1.06,9.07Z"/><path class="cls-24" d="M429.54,115.49q-1-4.36-2.4-8.63l2.59-.8q1.32,4.38,2.33,8.84Z"/><path class="cls-24" d="M424.09,98.45c-1.13-2.75-2.37-5.46-3.73-8.11L423,89q2,4.11,3.71,8.39Z"/><path class="cls-24" d="M416,82.59c-1.58-2.52-3.29-5-5.08-7.31l2.56-1.94c1.84,2.45,3.55,5,5.15,7.62Z"/><path class="cls-24" d="M405.14,68.48a82.56,82.56,0,0,0-6.39-6.16l2.16-2.49a85.51,85.51,0,0,1,6.61,6.44Z"/><path class="cls-24" d="M391.72,56.94a61.61,61.61,0,0,0-7.62-4.42l1.49-3a66.8,66.8,0,0,1,8,4.69Z"/><path class="cls-24" d="M376,49.36a35.46,35.46,0,0,0-8.5-1.41l.12-3.46a38.76,38.76,0,0,1,9.32,1.57Z"/><path class="cls-24" d="M359.21,49.15a14.34,14.34,0,0,0-6.49,4.66l-2.78-2.22a18.09,18.09,0,0,1,3.64-3.45A18.57,18.57,0,0,1,358,45.85Z"/><path class="cls-24" d="M349,61.26c-.19.69-.41,1.38-.57,2.07s-.3,1.38-.41,2.07a22.72,22.72,0,0,0-.28,4.18l-3.64.1a26.92,26.92,0,0,1,.34-4.84c.13-.8.29-1.59.48-2.36s.44-1.53.65-2.3Z"/><path class="cls-24" d="M349.83,77.3a11.25,11.25,0,0,0,6,4.69l-1.16,3.54a14.91,14.91,0,0,1-8-6.31Z"/><path class="cls-24" d="M362.84,81.16a10.6,10.6,0,0,0,4-6.37l3.68.89a16.35,16.35,0,0,1-1.9,4.72A12.14,12.14,0,0,1,365,84.27Z"/><path class="cls-24" d="M366.92,66.66a15.33,15.33,0,0,0-1.46-3.73,30.15,30.15,0,0,0-2.28-3.59l3-2.2a34.17,34.17,0,0,1,2.59,4,19.43,19.43,0,0,1,1.84,4.68Z"/><path class="cls-24" d="M357.33,52.94a48,48,0,0,0-7-5.21l1.88-3.08a51.32,51.32,0,0,1,7.54,5.57Z"/><path class="cls-24" d="M342.54,43.94a38.66,38.66,0,0,0-8.39-2l.43-3.5a41.8,41.8,0,0,1,9.18,2.2Z"/><path class="cls-24" d="M325.54,41.86a36.77,36.77,0,0,0-8.38,2L316,40.67a40.4,40.4,0,0,1,9.16-2.27Z"/><path class="cls-24" d="M309.26,47.68c-2.56,1.47-5.05,3.1-7.5,4.8l-1.94-2.76c2.5-1.76,5.07-3.45,7.74-5Z"/><polygon class="cls-24" points="294.54 57.81 287.49 63.42 285.39 60.85 292.49 55.16 294.54 57.81"/><polygon class="cls-24" points="280.52 69.17 273.56 74.96 271.47 72.46 278.41 66.64 280.52 69.17"/><polygon class="cls-24" points="266.56 80.72 259.48 86.41 257.51 83.92 264.52 78.23 266.56 80.72"/><polygon class="cls-24" points="252.27 91.94 244.91 97.3 243.18 94.87 250.41 89.49 252.27 91.94"/><path class="cls-24" d="M237.39,102.42q-3.81,2.51-7.72,4.85l-1.45-2.4c2.56-1.56,5.08-3.19,7.57-4.86Z"/><path class="cls-24" d="M221.75,111.78c-2.69,1.44-5.37,2.79-8.06,4.19l-1.2-2.32c2.65-1.42,5.35-2.82,8-4.25Z"/><polygon class="cls-24" points="205.6 120.06 197.42 124.02 196.38 121.82 204.47 117.81 205.6 120.06"/><path class="cls-24" d="M189.14,127.76c-2.79,1.2-5.6,2.35-8.43,3.43l-.82-2.1c2.8-1.09,5.56-2.26,8.31-3.48Z"/><path class="cls-24" d="M172.1,134.2c-2.9.92-5.83,1.75-8.8,2.45l-.48-2c2.9-.71,5.77-1.55,8.62-2.49Z"/><path class="cls-24" d="M154.31,138.32a70,70,0,0,1-9.15.65l0-1.86a73.67,73.67,0,0,0,8.89-.74Z"/><path class="cls-24" d="M136,138.31a51.72,51.72,0,0,1-8.93-2.18l.49-1.48a50.69,50.69,0,0,0,8.68,2Z"/><path class="cls-24" d="M118.69,132.4a55.71,55.71,0,0,1-7.58-5.13l.78-1a53.93,53.93,0,0,0,7.48,4.88Z"/><path class="cls-24" d="M104.61,120.71a9.69,9.69,0,0,1-1.23-4.58,11.72,11.72,0,0,1,.91-4.62l.94.38a10.78,10.78,0,0,0-.79,4.21,8.73,8.73,0,0,0,1.14,4.06Z"/><path class="cls-24" d="M109.77,104.14a43.94,43.94,0,0,1,7.41-5.34l.39.67a43.7,43.7,0,0,0-7.19,5.32Z"/><path class="cls-24" d="M125.31,94.73c2.78-1.2,5.62-2.26,8.49-3.21L134,92c-2.84,1-5.65,2.09-8.39,3.31Z"/><path class="cls-24" d="M142.49,88.94c2.92-.77,5.86-1.46,8.82-2.1l.05.23c-2.94.68-5.86,1.42-8.77,2.24Z"/><polygon class="cls-24" points="160.21 85.12 164.71 84.38 160.22 85.2 160.21 85.12"/><polygon class="cls-23" points="164.54 64.03 175.08 73.54 218.31 66.2 164.54 64.03"/><polygon class="cls-23" points="218.31 66.2 177.86 78.71 187.65 87.68 218.31 66.2"/><polygon class="cls-21" points="175.08 73.54 175.08 84.42 177.86 78.71 218.31 66.2 175.08 73.54"/><polygon class="cls-22" points="180.84 81.44 175.08 84.42 177.86 78.71 180.84 81.44"/><polygon class="cls-23" points="446.85 289.95 436.59 299.76 393.16 293.66 446.85 289.95"/><polygon class="cls-23" points="393.16 293.66 433.95 305 424.42 314.26 393.16 293.66"/><polygon class="cls-21" points="436.59 299.76 436.9 310.63 433.95 305 393.16 293.66 436.59 299.76"/><polygon class="cls-22" points="431.05 307.82 436.9 310.63 433.95 305 431.05 307.82"/><path class="cls-25" d="M216.07,284.28q-2.72,3.68-5.21,7.47l-.21-.13Q213.28,287.89,216.07,284.28Z"/><polygon class="cls-25" points="205.99 299.46 201.41 307.33 200.8 306.98 205.57 299.2 205.99 299.46"/><polygon class="cls-25" points="197.1 315.35 193.07 323.51 192.11 323.04 196.32 314.94 197.1 315.35"/><path class="cls-25" d="M189.34,331.8q-1.78,4.18-3.39,8.44l-1.33-.52c1.13-2.83,2.33-5.64,3.58-8.42Z"/><path class="cls-25" d="M183,348.81c-.91,2.89-1.73,5.8-2.43,8.73l-1.74-.43c.77-3,1.66-5.9,2.64-8.8Z"/><path class="cls-25" d="M178.89,366.4c-.17,1.48-.35,3-.44,4.48s-.19,3-.23,4.51l-2.06-.08c.07-1.53.16-3.06.29-4.59s.32-3.06.51-4.59Z"/><path class="cls-25" d="M178.37,384.4a73.63,73.63,0,0,0,1.13,8.9l-2.23.42a75.18,75.18,0,0,1-1.06-9.19Z"/><path class="cls-25" d="M181.83,401.93a48.74,48.74,0,0,0,3.7,8.08l-2.16,1.22a51.45,51.45,0,0,1-3.79-8.52Z"/><path class="cls-25" d="M190.67,417.22a44.54,44.54,0,0,0,6.46,6l-1.66,2.13a47.08,47.08,0,0,1-6.76-6.48Z"/><path class="cls-25" d="M204.62,428a59.69,59.69,0,0,0,8.19,3.47l-1,2.75a63.49,63.49,0,0,1-8.54-3.74Z"/><path class="cls-25" d="M221.43,433.81a87.55,87.55,0,0,0,8.85,1.38l-.35,3.11a88.49,88.49,0,0,1-9.14-1.54Z"/><path class="cls-25" d="M239.24,435.77q4.5.12,9-.09l.14,3.25q-4.6.19-9.23.06Z"/><path class="cls-25" d="M257.23,435c3-.33,6-.75,8.92-1.26l.56,3.27q-4.54.76-9.13,1.26Z"/><path class="cls-25" d="M275,431.91c2.92-.69,5.82-1.48,8.66-2.4l1,3.24c-2.95.93-5.92,1.73-8.92,2.43Z"/><polygon class="cls-25" points="292.21 426.53 300.85 423.57 301.95 426.85 293.33 429.77 292.21 426.53"/><polygon class="cls-25" points="309.52 420.69 318.24 417.93 319.27 421.3 310.6 424.02 309.52 420.69"/><polygon class="cls-25" points="327 415.29 335.8 412.8 336.74 416.27 327.99 418.71 327 415.29"/><polygon class="cls-25" points="344.67 410.51 353.62 408.46 354.37 412.04 345.53 414.03 344.67 410.51"/><path class="cls-25" d="M362.65,406.73c3-.51,6.07-1,9.13-1.28l.4,3.7q-4.47.48-8.93,1.22Z"/><path class="cls-25" d="M381,404.8a76.87,76.87,0,0,1,9.34.32l-.38,3.77a70.81,70.81,0,0,0-8.87-.33Z"/><path class="cls-25" d="M399.63,406.83l2.26.66c.69.22,1.38.42,2.08.59a30.16,30.16,0,0,0,4.23.73l-.37,3.72a36.23,36.23,0,0,1-4.75-.8c-.78-.19-1.56-.41-2.32-.64l-2.12-.62Z"/><path class="cls-25" d="M416.76,408.47a37.12,37.12,0,0,0,8.29-2.55l1.46,3.34a41.2,41.2,0,0,1-9.09,2.84Z"/><path class="cls-25" d="M432.78,401.71a76,76,0,0,0,7.15-5.31l2.28,2.74a83.79,83.79,0,0,1-7.46,5.59Z"/><path class="cls-25" d="M446.61,390.4c2.17-2.09,4.28-4.24,6.39-6.42l2.5,2.41c-2.11,2.19-4.25,4.39-6.45,6.53Z"/><path class="cls-25" d="M459.5,377.46a28.18,28.18,0,0,1,3.78-3.07,7.47,7.47,0,0,1,2.74-1.14,3.73,3.73,0,0,1,2,.24,3.83,3.83,0,0,1,1.56,1.29l-2.74,2a.58.58,0,0,0-.16-.16s0,0-.19,0a4.18,4.18,0,0,0-1.42.66,24,24,0,0,0-3.27,2.7Z"/><path class="cls-25" d="M471.2,384.72c0,.78-.05,1.53-.09,2.34a20.69,20.69,0,0,1-.29,2.45,16.56,16.56,0,0,1-1.59,4.79l-2.92-1.52a13.31,13.31,0,0,0,1.25-3.84,20.35,20.35,0,0,0,.23-2.08l.07-2.21Z"/><path class="cls-25" d="M461.24,400.61a17.55,17.55,0,0,1-9.89-.65l1-3a14.45,14.45,0,0,0,8.05.54Z"/><path class="cls-25" d="M443,395.06a29.08,29.08,0,0,1-6.08-7.41l2.63-1.54a26,26,0,0,0,5.51,6.56Z"/><path class="cls-25" d="M433.42,378.84a61.17,61.17,0,0,1-1.66-9.18l2.83-.31a59.39,59.39,0,0,0,1.67,8.72Z"/><path class="cls-25" d="M431.41,360.37a59.13,59.13,0,0,1,1-9.27l2.6.48a56.91,56.91,0,0,0-.83,8.86Z"/><path class="cls-25" d="M435.08,342.1a23.16,23.16,0,0,1,5.46-7.86l1.64,1.81a20.54,20.54,0,0,0-4.77,7.07Z"/><path class="cls-25" d="M449.41,330.3a22.11,22.11,0,0,1,9.45,1.35l-.73,2.12a19.82,19.82,0,0,0-8.47-1.14Z"/><path class="cls-25" d="M466.63,337.39a8.22,8.22,0,0,1,1.16,5,8.36,8.36,0,0,1-2,4.62l-1.41-1.15a6.75,6.75,0,0,0,1.5-3.63,6.24,6.24,0,0,0-1-3.75Z"/><path class="cls-25" d="M457.63,351.83a38.83,38.83,0,0,1-9.11,1.69l-.09-1.17a36.94,36.94,0,0,0,8.72-1.93Z"/><path class="cls-25" d="M439.32,353.1a40,40,0,0,1-8.87-2.35l.19-.51a41,41,0,0,0,8.8,2Z"/><path class="cls-25" d="M422.59,346.1a20.78,20.78,0,0,1-2-2,19.72,19.72,0,0,0,2.14,1.94Z"/><path class="cls-26" d="M140.33,259.59a8.73,8.73,0,0,1,2.24,7.1c-.41,4.72-2.14,6.79-4.95,6.23s-3-7.88-3-7.88Z"/><path class="cls-27" d="M70.72,408.15c0-.11-.42-.27,1-2.06s3-3.53,3-3.53l-5.06-4.48s-4.25,5.44-5.66,6.18-.77,3.5,1.77,4.81S70.72,408.15,70.72,408.15Z"/><path class="cls-28" d="M72.19,406.43a7.93,7.93,0,0,0-2.59-.18c-.56.23-.77,1.43-1.29,1.56a3.7,3.7,0,0,1-2.9-1.77c-.8-1.27-.06-2.47-.1-2.92s-5,2.81-5.27,4.12,3.14,3.46,4.52,5.39,4,6.92,7,9.58,4.55,3.11,5.37,2.33c1.39-1.31,1.08-2.91-.36-5.5S72,410.41,72,409.81A25,25,0,0,0,72.19,406.43Z"/><path class="cls-29" d="M95.48,302.82s4.19,52.84,2,61.51-23.38,41.53-23.38,41.53A9.5,9.5,0,0,1,70,403.08c-2.14-2.28-3.5-3.24-3-3.4s10.8-20.81,10.8-20.81,8.68-78.41,8.92-78.57a62.42,62.42,0,0,1,5.7-2.73C92.83,297.57,95.48,302.82,95.48,302.82Z"/><path class="cls-27" d="M88.07,418.76a10.7,10.7,0,0,1-.86-2.39c-.14-.93-.35-5.05-.35-5.05l-5.69.23a67.22,67.22,0,0,1,.27,7.62c-.21,1.94,1,3.17,3,2.56A8,8,0,0,0,88.07,418.76Z"/><path class="cls-30" d="M67.47,300.06s-1,12.16,0,20.25c1,7.53,8.25,48.88,8.24,49a67.17,67.17,0,0,0-.57,12.64c.14,2.56.45,5.88.81,8.86,1.31,10.79,3.06,20.76,4,25a8.07,8.07,0,0,0,7.59-.6s.23-19.1.45-26.15c0-1.29-.1-8.28.08-10.73.39-5.26.75-9.87.77-12.32l0-.05,2.9-38,3.72-28.63Z"/><path class="cls-31" d="M93,234a36.52,36.52,0,0,1,11,13.42c2.38,5.32,5.22,10.9,7,14.21a5.39,5.39,0,0,0,5,2.91l21.57-.59-.41,8s-16.6,8-30.63,2.84C100.54,272.6,93.51,266,93.51,266Z"/><path class="cls-32" d="M79.87,228.65c-6.14,1.54-13,7.26-16.53,20.44s3.38,61,3.86,61,28,1.93,29.76,0c.4-21.78.59-45,0-63.72-.41-12.69-7.42-17.19-7.42-17.19S83.62,227.7,79.87,228.65Z"/><rect class="cls-21" x="33.6" y="257.45" width="108.72" height="63.72" rx="2.2" transform="translate(-40.64 15.63) rotate(-8.26)"/><path class="cls-22" d="M135.24,251.89,32,266.88c-1.2.17-2.27-.32-2.09.88l56,23.89a5.38,5.38,0,0,0,5.24-.77l46.4-38.74C137.32,250.94,136.44,251.72,135.24,251.89Z"/><path class="cls-23" d="M135,250.29l-103.24,15a2.19,2.19,0,0,0-1.86,2.49l55.61,21.52a5.36,5.36,0,0,0,5.23-.77l46.75-36.37A2.19,2.19,0,0,0,135,250.29Z"/><path class="cls-22" d="M41.2,326.12c3-3.09,6.07-6,9.23-8.88s6.37-5.65,9.61-8.41,6.56-5.44,9.92-8.05,6.77-5.19,10.32-7.59c-3,3.1-6.07,6-9.22,8.89s-6.37,5.65-9.62,8.41-6.55,5.44-9.92,8.05S44.75,323.72,41.2,326.12Z"/><path class="cls-22" d="M142.6,311.41c-3.72-2.12-7.53-4-11.37-5.89s-7.71-3.62-11.61-5.34-7.83-3.35-11.8-4.9-8-3-12-4.33c3.72,2.12,7.53,4,11.37,5.89s7.72,3.61,11.61,5.33,7.83,3.35,11.8,4.9S138.52,310.11,142.6,311.41Z"/><path class="cls-26" d="M81.5,225,80,229.4s5.44,3.2,9.19,2.14a42.08,42.08,0,0,0,1.91-4.32Z"/><path class="cls-27" d="M98.27,305.63a48.25,48.25,0,0,0,5.18,2l5.4,2.76a.87.87,0,0,1,.34,1.23l-.29.45a1.75,1.75,0,0,1-1.78.08L104,310.54l3.64,4.45a.79.79,0,0,1,.19.47l.23,3.58a.82.82,0,0,1-.55.84l-.29.09a.82.82,0,0,1-1-.49l-1.33-3.55.9,3.73a.82.82,0,0,1-.67,1l-.49.09a.82.82,0,0,1-.8-.33l-.48-.64-.08.53a.83.83,0,0,1-.71.69l-.19,0a.84.84,0,0,1-.8-.37l-7.19-11.19Z"/><path class="cls-31" d="M70.57,236.5a21.34,21.34,0,0,0-4.6,9.84c-1.29,6.34-14,35.83-4.15,43.24,13.18,9.87,31.84,21,31.84,21L99.57,305,74.63,280.27a4.37,4.37,0,0,1-.94-4.81c1.79-4.19,5.26-12.36,7.53-18.27,3.17-8.26,6.17-15.53-1.31-21C76.08,233.37,70.57,236.5,70.57,236.5Z"/><path class="cls-33" d="M107.67,187.51c1.77,3.67-1.69,12.59-1.69,12.59S92.76,197.92,88.5,198s-7.45,10.77-11,19.76c-4.27,3.51-12.77-7.1-8.75-19.4-1.18,2-2.37,2-2.37,2s-1.54-4.5,3.79-8c-3,1.07-3.79.95-3.79.95a6.22,6.22,0,0,1,5-2.48c.83-5.21,1.54-6.75,3.43-8.17a16,16,0,0,1-.59,4s2.13-4.5,10.17-6.16,9.35-.35,9.35-.35a7.87,7.87,0,0,1-4.26,1.18C96.79,181.72,102.35,183.14,107.67,187.51Z"/><path class="cls-27" d="M106.64,206.64c-2.42,11.6-2.1,15.69-4.66,18.67-2.41,2.8-8.53,6.12-20,.51-5.53-2.7-5.8-10.47-5.8-10.47a4.59,4.59,0,0,1-2.76-.08,3.38,3.38,0,0,1-2-4.17c.86-3,2.47-3.65,3.71-3.73,2.22-.14,3.22,2.15,3.22,2.15a64.39,64.39,0,0,1,2.1-7.55c1.17-3.14,2.4-7.36,14.74-4.8,3.8.78,9,1.54,10.81,2.93S107.3,203.53,106.64,206.64Z"/><path class="cls-33" d="M112.47,185.78a9.91,9.91,0,0,0-8.08-2.26c1,.53,1,2.13.34,3-3,4.15-7.59,1.53-11.41.64a13.67,13.67,0,0,0-11.4,2.55,15.1,15.1,0,0,0-4.64,6.65c.48-.16,1-.31,1.45-.44,3.51-.88,6.86.52,12.28,4,5.83,3.73,13.48,5.25,19.71,1.74C116.8,198.3,118.34,190.83,112.47,185.78Z"/><path class="cls-34" d="M97.41,211.77a4.53,4.53,0,0,1,1.8-.21,2.37,2.37,0,0,1,1.68.8,1,1,0,0,1,.12,1,1.45,1.45,0,0,1-.26.43,2.67,2.67,0,0,1-.36.31,4.44,4.44,0,0,1-1.7.63,7,7,0,0,0,1.55-.83c.45-.34.73-.92.38-1.34a2.22,2.22,0,0,0-1.45-.74A7.37,7.37,0,0,0,97.41,211.77Z"/><path class="cls-34" d="M86.87,217.73a2.23,2.23,0,0,0,.42,1.87,3.1,3.1,0,0,0,1.53,1.16,6.31,6.31,0,0,0,1.94.38,17.58,17.58,0,0,0,2,0c-.33.1-.67.17-1,.26s-.69.09-1,.11a5.83,5.83,0,0,1-2.1-.32A3.24,3.24,0,0,1,87,219.78,2.07,2.07,0,0,1,86.87,217.73Z"/><path class="cls-35" d="M96.57,204.34c.07,1.44.52,5.69-3.51,5.69s-2.68-4.76-2.68-4.76A52.87,52.87,0,0,1,96.57,204.34Z"/><path class="cls-33" d="M95.72,204c-4.62-.06-7.29,1.56-4.37,1.78S98.77,204.05,95.72,204Z"/><path class="cls-36" d="M95.11,210.34c-.37-1.7-2.1-1.79-3-.29"/><path class="cls-37" d="M101.79,205.12c-.4,1.07-1.77,4.92,1.26,5.9s3.26-4,3.26-4S103.17,205.6,101.79,205.12Z"/><path class="cls-33" d="M102.56,205c3.36.69,5.38,2.89,2.33,2.07S100.81,204.67,102.56,205Z"/><path class="cls-36" d="M104.12,210.91c-.49-2-2.59-1.75-2.87-.23"/><path class="cls-33" d="M78.59,206.19c-1.81,3.35-1.32,7.32.07,8.92C80.54,211.84,78.59,206.19,78.59,206.19Z"/><path class="cls-31" d="M86.71,232.87c-4,0-8.08-2.36-8.74-4a1.42,1.42,0,0,1,.61-1.76c.75-.42,1.25-.23,2,.66.86,1.07,5.5,2.79,9.86,1.87a1.42,1.42,0,1,1,.61,2.77A29.13,29.13,0,0,1,86.71,232.87Z"/><path class="cls-27" d="M140.37,259s-3.84-.2-3.1,2.46a2.16,2.16,0,0,0,4.26,0C142,259.41,140.37,259,140.37,259Z"/><path class="cls-27" d="M139.84,262.59s-3.83-.2-3.09,2.46a2.16,2.16,0,0,0,4.25,0C141.48,263,139.84,262.59,139.84,262.59Z"/><path class="cls-27" d="M140,266s-3.35-.17-2.7,2.15a1.88,1.88,0,0,0,3.71,0C141.43,266.36,140,266,140,266Z"/><path class="cls-27" d="M140,269.22s-2.5-.14-2,1.6a1.41,1.41,0,0,0,2.77,0C141.1,269.45,140,269.22,140,269.22Z"/><path class="cls-28" d="M88,416.6s-1.71,1.16-1.93,1.73.5,1.55.24,2a3.79,3.79,0,0,1-3.3.86c-1.46-.31-1.81-1.67-2.16-2s-1.48,5.58-.7,6.66,4.67.13,7,.48S95,428.29,99,428s5.39-1.12,5.4-2.25c0-1.92-1.35-2.8-4.21-3.56s-9.4-2.68-9.83-3.1A23.86,23.86,0,0,0,88,416.6Z"/></g></svg>